<?xml version="1.0" encoding="utf-8"?>
<!-- Generator: Adobe Illustrator 14.0.0, SVG Export Plug-In . SVG Version: 6.00 Build 43363)  -->
<!DOCTYPE svg PUBLIC "-//W3C//DTD SVG 1.1//EN" "http://www.w3.org/Graphics/SVG/1.1/DTD/svg11.dtd">
<svg version="1.1" xmlns="http://www.w3.org/2000/svg" xmlns:xlink="http://www.w3.org/1999/xlink" x="0px" y="0px" width="16px"
	 height="16px" viewBox="0 0 16 16" style="enable-background:new 0 0 16 16;" xml:space="preserve">
<g id="Icon_Favourite">
	<path id="Lower" style="fill:#FFFFFF;" d="M15,5.3081055C15,10.1542969,9.6425781,8.5390625,7.5,15
		C5.3427734,8.5390625,0,10.1328125,0,5.3081055C0,2.59375,1.6069336,1.0004883,3.75,1.0004883
		c2.6787109,0,3.75,2.1762695,3.75,2.1762695s1.0712891-2.1762695,3.7509766-2.1762695
		C13.3935547,1.0004883,15,2.5712891,15,5.3081055z"/>
	<g id="Upper_1_">
		<radialGradient id="Yellow_1_" cx="7.4790039" cy="4.5625" r="7.2543063" gradientUnits="userSpaceOnUse">
			<stop  offset="0" style="stop-color:#FFFFFF"/>
			<stop  offset="0.472393" style="stop-color:#FFF57A"/>
			<stop  offset="0.6076587" style="stop-color:#FFF477"/>
			<stop  offset="0.7136346" style="stop-color:#FFF06D"/>
			<stop  offset="0.8096381" style="stop-color:#FEEB5C"/>
			<stop  offset="0.8997712" style="stop-color:#FDE345"/>
			<stop  offset="0.9850296" style="stop-color:#FCD827"/>
			<stop  offset="1" style="stop-color:#FCD621"/>
		</radialGradient>
		<path id="Yellow" style="display:none;fill:url(#Yellow_1_);" d="M15,4.3076172C15,9.1542969,9.6425781,7.5385742,7.5,14
			C5.3427734,7.5385742,0,9.1318359,0,4.3076172C0,1.5932617,1.6069336,0,3.75,0C6.4287109,0,7.5,2.1762695,7.5,2.1762695
			S8.5712891,0,11.2509766,0C13.3935547,0,15,1.5708008,15,4.3076172z"/>
		
			<radialGradient id="Red_1_" cx="7.4790039" cy="4.5625" r="7.2543063" gradientTransform="matrix(1 0 0 0.8 0 0.9125004)" gradientUnits="userSpaceOnUse">
			<stop  offset="0" style="stop-color:#FFFFFF"/>
			<stop  offset="0.6662933" style="stop-color:#FF8773"/>
			<stop  offset="0.7538797" style="stop-color:#FF8471"/>
			<stop  offset="0.8224961" style="stop-color:#FF7A69"/>
			<stop  offset="0.8846717" style="stop-color:#FF695C"/>
			<stop  offset="0.9426807" style="stop-color:#FF524B"/>
			<stop  offset="0.9979204" style="stop-color:#FF3434"/>
			<stop  offset="1" style="stop-color:#FF3333"/>
		</radialGradient>
		<path id="Red" style="fill:url(#Red_1_);" d="M15,4.3076172C15,9.1542969,9.6425781,7.5385742,7.5,14
			C5.3427734,7.5385742,0,9.1318359,0,4.3076172C0,1.5932617,1.6069336,0,3.75,0C6.4287109,0,7.5,2.1762695,7.5,2.1762695
			S8.5712891,0,11.2509766,0C13.3935547,0,15,1.5708008,15,4.3076172z"/>
		<path id="Outline_Yellow" style="display:none;fill:#CC9933;" d="M11.2509766,0.5C13.2246094,0.5,14.5,1.9946289,14.5,4.3076172
			c0,2.1142578-1.1103516,2.8115234-2.6474609,3.7763672c-1.4345703,0.9003906-3.1748047,1.9941406-4.3535156,4.5527344
			C6.3149414,10.0751953,4.574707,8.9785156,3.140625,8.074707C1.6074219,7.1083984,0.5,6.4101562,0.5,4.3076172
			C0.5,1.9946289,1.7758789,0.5,3.75,0.5c2.3198242,0,3.2631836,1.8212891,3.3012695,1.8969727l0.4448242,0.8994141
			l0.4516602-0.8974609C7.9868164,2.3212891,8.9301758,0.5,11.2509766,0.5 M11.2509766,0C8.5712891,0,7.5,2.1762695,7.5,2.1762695
			S6.4287109,0,3.75,0C1.6069336,0,0,1.5932617,0,4.3076172C0,9.1318359,5.3427734,7.5385742,7.5,14
			C9.6425781,7.5385742,15,9.1542969,15,4.3076172C15,1.5708008,13.3935547,0,11.2509766,0L11.2509766,0z"/>
		<path id="Outline_Red" style="fill:#C1272D;" d="M11.2509766,0.5C13.2246094,0.5,14.5,1.9946289,14.5,4.3076172
			c0,2.1142578-1.1103516,2.8115234-2.6474609,3.7763672c-1.4345703,0.9003906-3.1748047,1.9941406-4.3535156,4.5527344
			C6.3149414,10.0751953,4.574707,8.9785156,3.140625,8.074707C1.6074219,7.1083984,0.5,6.4101562,0.5,4.3076172
			C0.5,1.9946289,1.7758789,0.5,3.75,0.5c2.3198242,0,3.2631836,1.8212891,3.3012695,1.8969727l0.4448242,0.8994141
			l0.4516602-0.8974609C7.9868164,2.3212891,8.9301758,0.5,11.2509766,0.5 M11.2509766,0C8.5712891,0,7.5,2.1762695,7.5,2.1762695
			S6.4287109,0,3.75,0C1.6069336,0,0,1.5932617,0,4.3076172C0,9.1318359,5.3427734,7.5385742,7.5,14
			C9.6425781,7.5385742,15,9.1542969,15,4.3076172C15,1.5708008,13.3935547,0,11.2509766,0L11.2509766,0z"/>
	</g>
</g>
<g id="Hilfslinien">
</g>
</svg>
