<?xml version="1.0" encoding="utf-8"?>
<!-- Generator: Adobe Illustrator 14.0.0, SVG Export Plug-In . SVG Version: 6.00 Build 43363)  -->
<!DOCTYPE svg PUBLIC "-//W3C//DTD SVG 1.1//EN" "http://www.w3.org/Graphics/SVG/1.1/DTD/svg11.dtd">
<svg version="1.1" xmlns="http://www.w3.org/2000/svg" xmlns:xlink="http://www.w3.org/1999/xlink" x="0px" y="0px" width="16px"
	 height="16px" viewBox="0 0 16 16" style="enable-background:new 0 0 16 16;" xml:space="preserve">
<g id="Smiley_Laughing">
	<g id="Body">
		<path id="Lower" style="fill-rule:evenodd;clip-rule:evenodd;fill:#FFFFFF;" d="M0,8.5712891
			C0,4.46875,3.3574219,1.1425781,7.5,1.1425781S15,4.46875,15,8.5712891C15,12.6748047,11.6425781,16,7.5,16
			S0,12.6748047,0,8.5712891z"/>
		<g id="Upper">
			<path id="Frame" style="fill-rule:evenodd;clip-rule:evenodd;fill:#CC9933;" d="M0,7.5C0,3.3579102,3.3574219,0,7.5004883,0
				C11.6425781,0,15,3.3579102,15,7.5c0,4.1425781-3.3574219,7.5-7.4995117,7.5C3.3574219,15,0,11.6425781,0,7.5z"/>
			
				<radialGradient id="Inner_1_" cx="8.1303711" cy="6.2060547" r="6.964191" gradientTransform="matrix(1.0051936 0 0 1.0051589 -0.7099609 -0.5259018)" gradientUnits="userSpaceOnUse">
				<stop  offset="0" style="stop-color:#FFFFFF"/>
				<stop  offset="0.4723926" style="stop-color:#FFF57A"/>
				<stop  offset="0.6076586" style="stop-color:#FFF477"/>
				<stop  offset="0.7136345" style="stop-color:#FFF06D"/>
				<stop  offset="0.8096379" style="stop-color:#FEEB5C"/>
				<stop  offset="0.8997709" style="stop-color:#FDE345"/>
				<stop  offset="0.9850291" style="stop-color:#FCD827"/>
				<stop  offset="1" style="stop-color:#FCD621"/>
			</radialGradient>
			<path id="Inner" style="fill-rule:evenodd;clip-rule:evenodd;fill:url(#Inner_1_);" d="M0.5,7.5004883
				C0.5,3.6337891,3.6333008,0.5,7.5009766,0.5C11.3681641,0.5,14.5,3.6337891,14.5,7.5004883
				C14.5,11.3662109,11.3681641,14.5,7.5009766,14.5C3.6333008,14.5,0.5,11.3662109,0.5,7.5004883z"/>
		</g>
	</g>
	<g id="Sleepy" style="display:none;">
		<g id="Mouth_3_" style="display:inline;">
			<path style="fill-rule:evenodd;clip-rule:evenodd;fill:#666633;" d="M10.5,10.5c0,0.2753906-0.4501953,0.5-1,0.5H5.5004883
				c-0.5498047,0-1-0.2246094-1-0.5s0.4501953-0.5,1-0.5H9.5C10.0498047,10,10.5,10.2246094,10.5,10.5z"/>
		</g>
		<g id="Right_Eye_3_" style="display:inline;">
			<path style="fill-rule:evenodd;clip-rule:evenodd;fill:#666633;" d="M11.5,5.5c0,0.2749023-0.4501953,0.5-1,0.5h-1
				c-0.5498047,0-1-0.2250977-1-0.5S8.9501953,5,9.5,5h1C11.0498047,5,11.5,5.2250977,11.5,5.5z"/>
		</g>
		<g id="Left_Eye_3_" style="display:inline;">
			<path style="fill-rule:evenodd;clip-rule:evenodd;fill:#666633;" d="M6.5,5.5c0,0.2749023-0.4501953,0.5-1,0.5h-1
				c-0.5498047,0-1-0.2250977-1-0.5S3.9501953,5,4.5,5h1C6.0498047,5,6.5,5.2250977,6.5,5.5z"/>
		</g>
	</g>
	<g id="Mellow">
		<g id="Mouth_2_">
			<path style="fill-rule:evenodd;clip-rule:evenodd;fill:#666633;" d="M11,10.5c0,0.2753906-0.4501953,0.5-1,0.5H5
				c-0.5498047,0-1-0.2246094-1-0.5S4.4501953,10,5,10h5C10.5498047,10,11,10.2246094,11,10.5z"/>
		</g>
		<g id="Right_Eye_4_">
			<path style="fill-rule:evenodd;clip-rule:evenodd;fill:#666633;" d="M11,6c0,0.5498047-0.4501953,1-1,1l0,0
				C9.4501953,7,9,6.5498047,9,6V5c0-0.5498047,0.4501953-1,1-1l0,0c0.5498047,0,1,0.4501953,1,1V6z"/>
		</g>
		<g id="Left_Eye_4_">
			<path style="fill-rule:evenodd;clip-rule:evenodd;fill:#666633;" d="M5.9794922,6c0,0.5498047-0.4501953,1-1,1l0,0
				c-0.5498047,0-1-0.4501953-1-1V5c0-0.5498047,0.4501953-1,1-1l0,0c0.5498047,0,1,0.4501953,1,1V6z"/>
		</g>
	</g>
	<g id="Unsure" style="display:none;">
		<g id="Mouth_5_" style="display:inline;">
			<path style="fill-rule:evenodd;clip-rule:evenodd;fill:#666633;" d="M11.3857422,11.4472656
				c-0.0654297,0.2666016-0.3369141,0.4316406-0.6035156,0.3671875L3.9814453,10.15625
				c-0.2670898-0.0644531-0.4326172-0.3369141-0.3676758-0.6035156l0.0004883-0.0009766
				c0.0649414-0.2666016,0.3369141-0.4316406,0.6040039-0.3671875l6.800293,1.6582031
				c0.2666016,0.0644531,0.4326172,0.3369141,0.3671875,0.6035156V11.4472656z"/>
		</g>
		<g id="Right_Eye_5_" style="display:inline;">
			<path style="fill-rule:evenodd;clip-rule:evenodd;fill:#666633;" d="M11,6c0,0.5498047-0.4501953,1-1,1l0,0
				C9.4501953,7,9,6.5498047,9,6V5c0-0.5498047,0.4501953-1,1-1l0,0c0.5498047,0,1,0.4501953,1,1V6z"/>
		</g>
		<g id="Left_Eye_5_" style="display:inline;">
			<path style="fill-rule:evenodd;clip-rule:evenodd;fill:#666633;" d="M5.9794922,6c0,0.5498047-0.4501953,1-1,1l0,0
				c-0.5498047,0-1-0.4501953-1-1V5c0-0.5498047,0.4501953-1,1-1l0,0c0.5498047,0,1,0.4501953,1,1V6z"/>
		</g>
	</g>
	<g id="Scared" style="display:none;">
		<g id="Mouth_4_" style="display:inline;">
			<path style="fill-rule:evenodd;clip-rule:evenodd;fill:#666633;" d="M11,10.5c0,1.375-1.3496094,2.5-3,2.5H7
				c-1.6499023,0-3-1.125-3-2.5S5.3500977,8,7,8h1C9.6503906,8,11,9.125,11,10.5z"/>
		</g>
		<g id="Right_Eye_2_" style="display:inline;">
			<path style="fill-rule:evenodd;clip-rule:evenodd;fill:#666633;" d="M11,5c0,0.5498047-0.4501953,1-1,1l0,0
				C9.4501953,6,9,5.5498047,9,5V4.5009766c0-0.5498047,0.4501953-1,1-1l0,0c0.5498047,0,1,0.4501953,1,1V5z"/>
		</g>
		<g id="Left_Eye_2_" style="display:inline;">
			<path style="fill-rule:evenodd;clip-rule:evenodd;fill:#666633;" d="M5.9794922,5c0,0.5498047-0.4501953,1-1,1l0,0
				c-0.5498047,0-1-0.4501953-1-1V4.5009766c0-0.5498047,0.4501953-1,1-1l0,0c0.5498047,0,1,0.4501953,1,1V5z"/>
		</g>
	</g>
	<g id="Sad" style="display:none;">
		<path id="Mouth_1_" style="display:inline;fill-rule:evenodd;clip-rule:evenodd;fill:#666633;" d="M7.4985352,10.2402344
			c-1.3422852,0-2.4213867,0.3574219-3.4985352,1.2392578C4.1503906,10.09375,5.6503906,9,7.4990234,9
			C9.3486328,9,10.8505859,10.09375,11,11.4794922C10.0478516,10.7001953,8.8422852,10.2402344,7.4985352,10.2402344z"/>
		<g id="Right_Eye_1_" style="display:inline;">
			<path style="fill-rule:evenodd;clip-rule:evenodd;fill:#666633;" d="M12,6c0,0.5498047-0.4501953,1-1,1h-1
				C9.4501953,7,9,6.5498047,9,6l0,0c0-0.5498047,0.4501953-1,1-1h1C11.5498047,5,12,5.4501953,12,6L12,6z"/>
		</g>
		<g id="Left_Eye_1_" style="display:inline;">
			<path style="fill-rule:evenodd;clip-rule:evenodd;fill:#666633;" d="M5.9794922,6c0,0.5498047-0.4501953,1-1,1H4
				C3.4501953,7,3,6.5498047,3,6l0,0c0-0.5498047,0.4501953-1,1-1h0.9794922C5.5292969,5,5.9794922,5.4501953,5.9794922,6
				L5.9794922,6z"/>
		</g>
	</g>
	<g id="Smiling" style="display:none;">
		<g id="Mouth" style="display:inline;">
			<path style="fill-rule:evenodd;clip-rule:evenodd;fill:#666633;" d="M7.4985352,10.25
				c-1.7260742,0-3.652832-1.2158203-3.652832-1.2158203c-0.465332-0.2939453-0.6123047-0.1494141-0.3271484,0.3212891
				c0,0,1.6035156,2.6445312,3.9804688,2.6445312s3.9824219-2.6455078,3.9824219-2.6455078
				c0.2851562-0.4697266,0.1376953-0.6142578-0.3271484-0.3212891C11.1542969,9.0332031,9.2255859,10.25,7.4985352,10.25z"/>
		</g>
		<g id="Right_Eye" style="display:inline;">
			<path style="fill-rule:evenodd;clip-rule:evenodd;fill:#666633;" d="M11,6c0,0.5498047-0.4501953,1-1,1l0,0
				C9.4501953,7,9,6.5498047,9,6V5c0-0.5498047,0.4501953-1,1-1l0,0c0.5498047,0,1,0.4501953,1,1V6z"/>
		</g>
		<g id="Left_Eye" style="display:inline;">
			<path style="fill-rule:evenodd;clip-rule:evenodd;fill:#666633;" d="M5.9794922,6c0,0.5498047-0.4501953,1-1,1l0,0
				c-0.5498047,0-1-0.4501953-1-1V5c0-0.5498047,0.4501953-1,1-1l0,0c0.5498047,0,1,0.4501953,1,1V6z"/>
		</g>
	</g>
</g>
<g id="Hilfslinien">
</g>
</svg>
