<?xml version="1.0" encoding="utf-8"?>
<!-- Generator: Adobe Illustrator 14.0.0, SVG Export Plug-In . SVG Version: 6.00 Build 43363)  -->
<!DOCTYPE svg PUBLIC "-//W3C//DTD SVG 1.1//EN" "http://www.w3.org/Graphics/SVG/1.1/DTD/svg11.dtd">
<svg version="1.1" xmlns="http://www.w3.org/2000/svg" xmlns:xlink="http://www.w3.org/1999/xlink" x="0px" y="0px" width="16px"
	 height="16px" viewBox="0 0 16 16" style="enable-background:new 0 0 16 16;" xml:space="preserve">
<g id="Smiley_Laughing">
	<g id="Body">
		<path id="Lower" style="fill-rule:evenodd;clip-rule:evenodd;fill:#FFFFFF;" d="M0,8.5712891
			C0,4.46875,3.3574219,1.1425781,7.5,1.1425781S15,4.46875,15,8.5712891C15,12.6748047,11.6425781,16,7.5,16
			S0,12.6748047,0,8.5712891z"/>
		<g id="Upper">
			<path id="Frame" style="fill-rule:evenodd;clip-rule:evenodd;fill:#CC9933;" d="M0,7.5C0,3.3579102,3.3574219,0,7.5004883,0
				C11.6425781,0,15,3.3579102,15,7.5c0,4.1425781-3.3574219,7.5-7.4995117,7.5C3.3574219,15,0,11.6425781,0,7.5z"/>
			
				<radialGradient id="Inner_1_" cx="8.1303711" cy="6.2060547" r="6.964191" gradientTransform="matrix(1.0051936 0 0 1.0051589 -0.7099609 -0.5259018)" gradientUnits="userSpaceOnUse">
				<stop  offset="0" style="stop-color:#FFFFFF"/>
				<stop  offset="0.4723926" style="stop-color:#FFF57A"/>
				<stop  offset="0.6076586" style="stop-color:#FFF477"/>
				<stop  offset="0.7136345" style="stop-color:#FFF06D"/>
				<stop  offset="0.8096379" style="stop-color:#FEEB5C"/>
				<stop  offset="0.8997709" style="stop-color:#FDE345"/>
				<stop  offset="0.9850291" style="stop-color:#FCD827"/>
				<stop  offset="1" style="stop-color:#FCD621"/>
			</radialGradient>
			<path id="Inner" style="fill-rule:evenodd;clip-rule:evenodd;fill:url(#Inner_1_);" d="M0.5,7.5004883
				C0.5,3.6337891,3.6333008,0.5,7.5009766,0.5C11.3681641,0.5,14.5,3.6337891,14.5,7.5004883
				C14.5,11.3662109,11.3681641,14.5,7.5009766,14.5C3.6333008,14.5,0.5,11.3662109,0.5,7.5004883z"/>
		</g>
	</g>
	<g id="Exclamation">
		<g>
			<path style="fill:#666633;" d="M6.2666016,2.987793c0-0.5498047,0.4501953-1,1-1h0.46875c0.5488281,0,1,0.4501953,1,1v2.371582
				c0,0.5498047-0.1025391,1.4384766-0.2265625,1.9741211L8.3115234,8.1787109
				c-0.125,0.5356445-0.4931641,0.9736328-0.8183594,0.9736328c-0.3261719,0-0.6914062-0.4384766-0.8134766-0.9746094
				L6.4873047,7.3344727C6.3662109,6.7983398,6.2666016,5.9091797,6.2666016,5.359375V2.987793z"/>
		</g>
		<g>
			<path style="fill:#666633;" d="M7.5019531,13.0136719c-0.7587891,0-1.3735352-0.609375-1.3735352-1.3535156
				c0-0.7519531,0.6147461-1.3535156,1.3735352-1.3535156c0.7568359,0,1.3701172,0.6015625,1.3701172,1.3535156
				C8.8720703,12.4042969,8.2587891,13.0136719,7.5019531,13.0136719z"/>
		</g>
	</g>
	<g id="Dumb" style="display:none;">
		<g id="Mouth_7_" style="display:inline;">
			<path style="fill-rule:evenodd;clip-rule:evenodd;fill:#666633;" d="M10.9257812,8.2460938
				c-0.1367188-0.2382812-0.4414062-0.3183594-0.6767578-0.1777344l-6.015625,3.6054688
				c-0.2358398,0.1416016-0.3173828,0.4521484-0.1811523,0.6914062l0.0219727,0.0380859
				c0.1362305,0.2392578,0.4404297,0.3193359,0.6762695,0.1777344l6.0161133-3.6044922
				c0.2353516-0.1416016,0.3173828-0.4521484,0.1806641-0.6914062L10.9257812,8.2460938z"/>
		</g>
		<g id="Mouth_6_" style="display:inline;">
			<path style="fill-rule:evenodd;clip-rule:evenodd;fill:#666633;" d="M10.9257812,12.4033203
				c-0.1367188,0.2392578-0.4414062,0.3193359-0.6767578,0.1777344l-6.015625-3.6044922
				C3.9975586,8.8349609,3.9160156,8.5244141,4.0522461,8.2841797l0.0219727-0.0371094
				c0.1362305-0.2392578,0.4404297-0.3193359,0.6762695-0.1787109l6.0161133,3.6054688
				c0.2353516,0.1416016,0.3173828,0.4521484,0.1806641,0.6914062L10.9257812,12.4033203z"/>
		</g>
		<g id="Right_Eye_6_" style="display:inline;">
			<path style="fill-rule:evenodd;clip-rule:evenodd;fill:#666633;" d="M11,6c0,0.5498047-0.4501953,1-1,1l0,0
				C9.4501953,7,9,6.5498047,9,6V5c0-0.5498047,0.4501953-1,1-1l0,0c0.5498047,0,1,0.4501953,1,1V6z"/>
		</g>
		<g id="Left_Eye_6_" style="display:inline;">
			<path style="fill-rule:evenodd;clip-rule:evenodd;fill:#666633;" d="M6,6c0,0.5498047-0.4501953,1-1,1l0,0
				C4.4501953,7,4,6.5498047,4,6V5c0-0.5498047,0.4501953-1,1-1l0,0c0.5498047,0,1,0.4501953,1,1V6z"/>
		</g>
	</g>
	<g id="Sleepy" style="display:none;">
		<g id="Mouth_3_" style="display:inline;">
			<path style="fill-rule:evenodd;clip-rule:evenodd;fill:#666633;" d="M10.5,10.5c0,0.2753906-0.4501953,0.5-1,0.5H5.5004883
				c-0.5498047,0-1-0.2246094-1-0.5s0.4501953-0.5,1-0.5H9.5C10.0498047,10,10.5,10.2246094,10.5,10.5z"/>
		</g>
		<g id="Right_Eye_3_" style="display:inline;">
			<path style="fill-rule:evenodd;clip-rule:evenodd;fill:#666633;" d="M12,5.5C12,5.7749023,11.5498047,6,11,6H9.5
				c-0.5498047,0-1-0.2250977-1-0.5S8.9501953,5,9.5,5H11C11.5498047,5,12,5.2250977,12,5.5z"/>
		</g>
		<g id="Left_Eye_3_" style="display:inline;">
			<path style="fill-rule:evenodd;clip-rule:evenodd;fill:#666633;" d="M6.5,5.5c0,0.2749023-0.4501953,0.5-1,0.5H4
				C3.4501953,6,3,5.7749023,3,5.5S3.4501953,5,4,5h1.5C6.0498047,5,6.5,5.2250977,6.5,5.5z"/>
		</g>
	</g>
	<g id="Mellow" style="display:none;">
		<g id="Mouth_2_" style="display:inline;">
			<path style="fill-rule:evenodd;clip-rule:evenodd;fill:#666633;" d="M11,10.5c0,0.2753906-0.4501953,0.5-1,0.5H5
				c-0.5498047,0-1-0.2246094-1-0.5S4.4501953,10,5,10h5C10.5498047,10,11,10.2246094,11,10.5z"/>
		</g>
		<g id="Right_Eye_4_" style="display:inline;">
			<path style="fill-rule:evenodd;clip-rule:evenodd;fill:#666633;" d="M11,6c0,0.5498047-0.4501953,1-1,1l0,0
				C9.4501953,7,9,6.5498047,9,6V5c0-0.5498047,0.4501953-1,1-1l0,0c0.5498047,0,1,0.4501953,1,1V6z"/>
		</g>
		<g id="Left_Eye_4_" style="display:inline;">
			<path style="fill-rule:evenodd;clip-rule:evenodd;fill:#666633;" d="M6,6c0,0.5498047-0.4501953,1-1,1l0,0
				C4.4501953,7,4,6.5498047,4,6V5c0-0.5498047,0.4501953-1,1-1l0,0c0.5498047,0,1,0.4501953,1,1V6z"/>
		</g>
	</g>
	<g id="Thinking" style="display:none;">
		<g id="Mouth_8_" style="display:inline;">
			<path style="fill-rule:evenodd;clip-rule:evenodd;fill:#666633;" d="M11,10.5c0,0.2753906-0.4501953,0.5-1,0.5H5
				c-0.5498047,0-1-0.2246094-1-0.5S4.4501953,10,5,10h5C10.5498047,10,11,10.2246094,11,10.5z"/>
		</g>
		<g id="Right_Eye_7_" style="display:inline;">
			<path style="fill-rule:evenodd;clip-rule:evenodd;fill:#666633;" d="M11,4.5c0,0.5498047-0.4501953,1-1,1l0,0
				c-0.5498047,0-1-0.4501953-1-1V3c0-0.5498047,0.4501953-1,1-1l0,0c0.5498047,0,1,0.4501953,1,1V4.5z"/>
		</g>
		<g id="Left_Eye_7_" style="display:inline;">
			<path style="fill-rule:evenodd;clip-rule:evenodd;fill:#666633;" d="M6,4.5c0,0.5498047-0.4501953,1-1,1l0,0
				c-0.5498047,0-1-0.4501953-1-1V3c0-0.5498047,0.4501953-1,1-1l0,0c0.5498047,0,1,0.4501953,1,1V4.5z"/>
		</g>
	</g>
	<g id="Unsure" style="display:none;">
		<g id="Mouth_5_" style="display:inline;">
			<path style="fill-rule:evenodd;clip-rule:evenodd;fill:#666633;" d="M11.3769531,11.5126953
				c-0.0625,0.2685547-0.3310547,0.4316406-0.5976562,0.3632812L3.984375,10.140625
				c-0.2666016-0.0683594-0.4335938-0.3427734-0.3710938-0.6113281l0.0097656-0.0429688
				c0.0625-0.2675781,0.3310547-0.4306641,0.5976562-0.3632812l6.7949219,1.7353516
				c0.2666016,0.0683594,0.4335938,0.3427734,0.3710938,0.6113281L11.3769531,11.5126953z"/>
		</g>
		<g id="Right_Eye_5_" style="display:inline;">
			<path style="fill-rule:evenodd;clip-rule:evenodd;fill:#666633;" d="M11,6c0,0.5498047-0.4501953,1-1,1l0,0
				C9.4501953,7,9,6.5498047,9,6V5c0-0.5498047,0.4501953-1,1-1l0,0c0.5498047,0,1,0.4501953,1,1V6z"/>
		</g>
		<g id="Left_Eye_5_" style="display:inline;">
			<path style="fill-rule:evenodd;clip-rule:evenodd;fill:#666633;" d="M6,6c0,0.5498047-0.4501953,1-1,1l0,0
				C4.4501953,7,4,6.5498047,4,6V5c0-0.5498047,0.4501953-1,1-1l0,0c0.5498047,0,1,0.4501953,1,1V6z"/>
		</g>
	</g>
	<g id="Scared" style="display:none;">
		<g id="Mouth_4_" style="display:inline;">
			<path style="fill-rule:evenodd;clip-rule:evenodd;fill:#666633;" d="M11,10.5c0,1.375-1.3496094,2.5-3,2.5H7
				c-1.6499023,0-3-1.125-3-2.5S5.3500977,8,7,8h1C9.6503906,8,11,9.125,11,10.5z"/>
		</g>
		<g id="Right_Eye_2_" style="display:inline;">
			<path style="fill-rule:evenodd;clip-rule:evenodd;fill:#666633;" d="M11,5.0004883c0,0.5498047-0.4501953,1-1,1l0,0
				c-0.5498047,0-1-0.4501953-1-1v-0.5c0-0.5498047,0.4501953-1,1-1l0,0c0.5498047,0,1,0.4501953,1,1V5.0004883z"/>
		</g>
		<g id="Left_Eye_2_" style="display:inline;">
			<path style="fill-rule:evenodd;clip-rule:evenodd;fill:#666633;" d="M6,5.0004883c0,0.5498047-0.4501953,1-1,1l0,0
				c-0.5498047,0-1-0.4501953-1-1v-0.5c0-0.5498047,0.4501953-1,1-1l0,0c0.5498047,0,1,0.4501953,1,1V5.0004883z"/>
		</g>
	</g>
	<g id="Sad" style="display:none;">
		<path id="Mouth_1_" style="display:inline;fill-rule:evenodd;clip-rule:evenodd;fill:#666633;" d="M7.4985352,10.25
			C6.15625,10.25,5.0771484,10.6103516,4,11.5C4.1503906,10.1025391,5.6503906,9,7.4990234,9
			C9.3486328,9,10.8505859,10.1025391,11,11.5C10.0478516,10.7148438,8.8422852,10.25,7.4985352,10.25z"/>
		<g id="Right_Eye_1_" style="display:inline;">
			<path style="fill-rule:evenodd;clip-rule:evenodd;fill:#666633;" d="M12,6c0,0.5498047-0.4501953,1-1,1h-1
				C9.4501953,7,9,6.5498047,9,6l0,0c0-0.5498047,0.4501953-1,1-1h1C11.5498047,5,12,5.4501953,12,6L12,6z"/>
		</g>
		<g id="Left_Eye_1_" style="display:inline;">
			<path style="fill-rule:evenodd;clip-rule:evenodd;fill:#666633;" d="M6,6c0,0.5498047-0.4501953,1-1,1H4
				C3.4501953,7,3,6.5498047,3,6l0,0c0-0.5498047,0.4501953-1,1-1h1C5.5498047,5,6,5.4501953,6,6L6,6z"/>
		</g>
	</g>
	<g id="Smiling" style="display:none;">
		<g id="Mouth" style="display:inline;">
			<path style="fill-rule:evenodd;clip-rule:evenodd;fill:#666633;" d="M7.4985352,10.25
				c-1.7260742,0-3.652832-1.2158203-3.652832-1.2158203c-0.465332-0.2939453-0.6123047-0.1494141-0.3271484,0.3212891
				c0,0,1.6035156,2.6445312,3.9804688,2.6445312s3.9824219-2.6455078,3.9824219-2.6455078
				c0.2851562-0.4697266,0.1376953-0.6142578-0.3271484-0.3212891C11.1542969,9.0332031,9.2255859,10.25,7.4985352,10.25z"/>
		</g>
		<g id="Right_Eye" style="display:inline;">
			<path style="fill-rule:evenodd;clip-rule:evenodd;fill:#666633;" d="M11,6c0,0.5498047-0.4501953,1-1,1l0,0
				C9.4501953,7,9,6.5498047,9,6V5c0-0.5498047,0.4501953-1,1-1l0,0c0.5498047,0,1,0.4501953,1,1V6z"/>
		</g>
		<g id="Left_Eye" style="display:inline;">
			<path style="fill-rule:evenodd;clip-rule:evenodd;fill:#666633;" d="M6,6c0,0.5498047-0.4501953,1-1,1l0,0
				C4.4501953,7,4,6.5498047,4,6V5c0-0.5498047,0.4501953-1,1-1l0,0c0.5498047,0,1,0.4501953,1,1V6z"/>
		</g>
		<path id="Tounge_1_" style="display:inline;fill-rule:evenodd;clip-rule:evenodd;fill:#FF6600;" d="M7,11.9765625
			c0,0,2.2705078,3.0234375,4.3544922,1.4404297C12.5302734,12.5244141,11,10.015625,11,10.015625
			s-0.5400391,0.5214844-1.71875,1.203125C8.28125,11.796875,7,11.9765625,7,11.9765625z"/>
	</g>
</g>
<g id="Hilfslinien">
</g>
</svg>
