<?xml version="1.0" encoding="utf-8"?>
<!-- Generator: Adobe Illustrator 14.0.0, SVG Export Plug-In . SVG Version: 6.00 Build 43363)  -->
<!DOCTYPE svg PUBLIC "-//W3C//DTD SVG 1.1//EN" "http://www.w3.org/Graphics/SVG/1.1/DTD/svg11.dtd">
<svg version="1.1" xmlns="http://www.w3.org/2000/svg" xmlns:xlink="http://www.w3.org/1999/xlink" x="0px" y="0px" width="16px"
	 height="16px" viewBox="0 0 16 16" style="enable-background:new 0 0 16 16;" xml:space="preserve">
<g id="Body">
	<path id="Lower" style="fill-rule:evenodd;clip-rule:evenodd;fill:#FFFFFF;" d="M0,8.5712891
		C0,4.46875,3.3574219,1.1425781,7.5,1.1425781S15,4.46875,15,8.5712891C15,12.6748047,11.6425781,16,7.5,16
		S0,12.6748047,0,8.5712891z"/>
	<g id="Upper_Yellow" style="display:none;">
		<path id="Frame" style="display:inline;fill-rule:evenodd;clip-rule:evenodd;fill:#CC9933;" d="M0,7.5
			C0,3.3579102,3.3574219,0,7.5004883,0C11.6425781,0,15,3.3579102,15,7.5c0,4.1425781-3.3574219,7.5-7.4995117,7.5
			C3.3574219,15,0,11.6425781,0,7.5z"/>
		
			<radialGradient id="Inner_2_" cx="8.0786133" cy="5.8706055" r="6.9639564" gradientTransform="matrix(1.0052 0 0 1.0052 -0.6572266 -0.1896458)" gradientUnits="userSpaceOnUse">
			<stop  offset="0" style="stop-color:#FFFFFF"/>
			<stop  offset="0.472393" style="stop-color:#FFF57A"/>
			<stop  offset="0.6076587" style="stop-color:#FFF477"/>
			<stop  offset="0.7136346" style="stop-color:#FFF06D"/>
			<stop  offset="0.8096381" style="stop-color:#FEEB5C"/>
			<stop  offset="0.8997712" style="stop-color:#FDE345"/>
			<stop  offset="0.9850296" style="stop-color:#FCD827"/>
			<stop  offset="1" style="stop-color:#FCD621"/>
		</radialGradient>
		<path id="Inner" style="display:inline;fill-rule:evenodd;clip-rule:evenodd;fill:url(#Inner_2_);" d="M0.5,7.5004883
			C0.5,3.6337891,3.6333008,0.5,7.5009766,0.5C11.3681641,0.5,14.5,3.6337891,14.5,7.5004883
			C14.5,11.3662109,11.3681641,14.5,7.5009766,14.5C3.6333008,14.5,0.5,11.3662109,0.5,7.5004883z"/>
	</g>
	<g id="Upper_Green">
		<path id="Frame_2_" style="fill-rule:evenodd;clip-rule:evenodd;fill:#009245;" d="M0,7.5C0,3.3579102,3.3574219,0,7.5004883,0
			C11.6425781,0,15,3.3579102,15,7.5c0,4.1425781-3.3574219,7.5-7.4995117,7.5C3.3574219,15,0,11.6425781,0,7.5z"/>
		
			<radialGradient id="Inner_3_" cx="8.0786133" cy="5.8706055" r="6.9639564" gradientTransform="matrix(1.0052 0 0 1.0052 -0.6572266 -0.1896458)" gradientUnits="userSpaceOnUse">
			<stop  offset="0" style="stop-color:#FFFFFF"/>
			<stop  offset="0.472393" style="stop-color:#73FF00"/>
			<stop  offset="0.6280492" style="stop-color:#74FC03"/>
			<stop  offset="0.7499722" style="stop-color:#78F30D"/>
			<stop  offset="0.8604129" style="stop-color:#7FE41E"/>
			<stop  offset="0.9634992" style="stop-color:#88CF35"/>
			<stop  offset="1" style="stop-color:#8CC63F"/>
		</radialGradient>
		<path id="Inner_1_" style="fill-rule:evenodd;clip-rule:evenodd;fill:url(#Inner_3_);" d="M0.5,7.5004883
			C0.5,3.6337891,3.6333008,0.5,7.5009766,0.5C11.3681641,0.5,14.5,3.6337891,14.5,7.5004883
			C14.5,11.3662109,11.3681641,14.5,7.5009766,14.5C3.6333008,14.5,0.5,11.3662109,0.5,7.5004883z"/>
	</g>
</g>
<g id="Smiley_Types">
	<g id="Arrows" style="display:none;">
		<polygon id="Next" style="fill-rule:evenodd;clip-rule:evenodd;fill:#666633;" points="2,6 8.9995117,6 8.9995117,3.5 14,7.5 
			8.9975586,11.5 8.9995117,9 2,9 		"/>
		<polygon id="Previous" style="display:inline;fill-rule:evenodd;clip-rule:evenodd;fill:#666633;" points="13,6 6.0004883,6 
			6.0004883,3.5 1,7.5 6.0024414,11.5 6.0004883,9 13,9 		"/>
	</g>
	<g id="Exclamation" style="display:none;">
		<g id="Exclamation_Mark" style="display:inline;">
			<path style="fill:#666633;" d="M8.8720703,11.6601562c0,0.7441406-0.6132812,1.3535156-1.3701172,1.3535156
				c-0.7587891,0-1.3735352-0.609375-1.3735352-1.3535156c0-0.7519531,0.6147461-1.3535156,1.3735352-1.3535156
				C8.2587891,10.3066406,8.8720703,10.9082031,8.8720703,11.6601562z M7.4931641,9.1523438
				c0.3256836,0,0.6938477-0.4384766,0.8183594-0.9741211l0.1972656-0.8447266
				C8.6333008,6.7978516,8.7353516,5.9091797,8.7353516,5.359375V2.987793c0-0.5498047-0.4501953-1-1-1h-0.46875
				c-0.5498047,0-1,0.4501953-1,1v2.371582c0,0.5498047,0.0996094,1.4389648,0.2216797,1.9750977l0.1914062,0.8427734
				C6.8017578,8.7133789,7.1674805,9.1523438,7.4931641,9.1523438z"/>
		</g>
	</g>
	<g id="Question" style="display:none;">
		<path id="Question_Mark" style="display:inline;fill:#666633;" d="M4.0629883,4.1831055
			c0.1787109-0.4423828,0.4282227-0.8251953,0.7475586-1.1503906c0.3212891-0.324707,0.7070312-0.5776367,1.1591797-0.7592773
			c0.453125-0.1826172,0.9584961-0.2739258,1.5166016-0.2739258c0.7231445,0,1.3256836,0.0957031,1.8056641,0.2871094
			c0.484375,0.1923828,0.875,0.4306641,1.1660156,0.7163086c0.2958984,0.2856445,0.5087891,0.5917969,0.6328125,0.921875
			c0.1298828,0.3300781,0.1904297,0.637207,0.1904297,0.9228516c0,0.472168-0.0605469,0.8603516-0.1904297,1.1655273
			c-0.1240234,0.3046875-0.2822266,0.565918-0.4726562,0.7817383c-0.1855469,0.2172852-0.3964844,0.4018555-0.6230469,0.5541992
			c-0.2285156,0.1518555-0.4453125,0.3046875-0.6494141,0.456543C9.1445312,7.9589844,8.9638672,8.1328125,8.8071289,8.3300781
			c-0.159668,0.1972656-0.2592773,0.4423828-0.2973633,0.7382812v0.5585938H6.4501953V8.9648438
			c0.0307617-0.4228516,0.1142578-0.7763672,0.2524414-1.0625C6.8393555,7.6166992,7,7.3735352,7.1831055,7.1723633
			c0.1831055-0.2021484,0.375-0.3774414,0.5791016-0.5249023c0.2026367-0.1469727,0.3901367-0.2949219,0.5634766-0.4423828
			c0.1733398-0.1479492,0.3129883-0.3095703,0.4194336-0.4868164S8.9008789,5.3198242,8.890625,5.0537109
			c0-0.4521484-0.1142578-0.7861328-0.3447266-1.0029297C8.3178711,3.8349609,8.0004883,3.7260742,7.59375,3.7260742
			c-0.2749023,0-0.5112305,0.0517578-0.7080078,0.1552734C6.6865234,3.9833984,6.5244141,4.121582,6.3969727,4.2944336
			c-0.1279297,0.171875-0.2211914,0.3735352-0.28125,0.6040039C6.0537109,5.1308594,6.0229492,5.3789062,6.0229492,5.644043
			H3.7817383C3.7924805,5.112793,3.8857422,4.6259766,4.0629883,4.1831055z M7.5327148,10.3027344
			c-0.753418,0-1.3647461,0.6035156-1.3647461,1.3476562S6.7792969,13,7.5327148,13
			c0.7514648,0,1.362793-0.6054688,1.362793-1.3496094S8.2841797,10.3027344,7.5327148,10.3027344z"/>
	</g>
	<g id="Laughing" style="display:none;">
		<g id="Mouth_13_" style="display:inline;">
			<path style="fill-rule:evenodd;clip-rule:evenodd;fill:#666633;" d="M7.4985352,9C4.722168,9,3,9,3,9
				C2.4501953,9,2.1679688,9.4169922,2.3735352,9.9277344c0,0,1.237793,3.0722656,5.1254883,3.0722656
				c3.8896484,0,5.1269531-3.0722656,5.1269531-3.0722656C12.8320312,9.4169922,12.5498047,9,12,9C12,9,10.2548828,9,7.4985352,9z"
				/>
		</g>
		<g id="Mouth_Inner" style="display:inline;">
			<path style="fill-rule:evenodd;clip-rule:evenodd;fill:#FFFFFF;" d="M7.5,9.5c-2.4985352,0-4,0-4,0
				c-0.2749023,0-0.4287109,0.2138672-0.3417969,0.4746094C3.1582031,9.9746094,4,12.5,7.4990234,12.5
				C11,12.5,11.8417969,9.9746094,11.8417969,9.9746094C11.9287109,9.7138672,11.7753906,9.5,11.5,9.5
				C11.5,9.5,9.9804688,9.5,7.5,9.5z"/>
		</g>
		<g id="Teeth" style="display:inline;">
			<g id="Part7">
				<path style="fill:#E6E6E6;" d="M7.5004883,11.0400391c-2.5224609,0-4.0649414-1.0517578-4.1293945-1.0966797
					c-0.0493164-0.0341797-0.050293-0.0908203-0.0024414-0.1259766C3.4179688,9.7822266,3.496582,9.78125,3.5454102,9.8154297
					c0.0151367,0.0107422,1.5380859,1.0458984,3.9550781,1.0458984c2.4008789,0,3.918457-1.0351562,3.934082-1.0458984
					c0.0507812-0.0332031,0.1289062-0.0332031,0.1767578,0.0019531s0.046875,0.0917969-0.0029297,0.1259766
					C11.5439453,9.9882812,10.0019531,11.0400391,7.5004883,11.0400391L7.5004883,11.0400391z"/>
			</g>
			<g id="Part6">
				<path style="fill:#E6E6E6;" d="M10,11.1591797c-0.0693359,0-0.125-0.046875-0.125-0.1044922v-1.0517578
					c0-0.1162109,0.25-0.1162109,0.25,0v1.0517578C10.125,11.1123047,10.0693359,11.1591797,10,11.1591797L10,11.1591797z"/>
			</g>
			<g id="Part5">
				<path style="fill:#E6E6E6;" d="M9,11.5800781c-0.0688477,0-0.125-0.046875-0.125-0.1054688v-1.2607422
					c-0.0009766-0.1181641,0.25-0.1171875,0.25,0v1.2607422C9.125,11.5332031,9.0693359,11.5800781,9,11.5800781L9,11.5800781z"/>
			</g>
			<g id="Part4">
				<path style="fill:#E6E6E6;" d="M8,11.7900391c-0.0688477,0-0.125-0.046875-0.125-0.1054688v-1.3486328
					c0-0.1171875,0.25-0.1171875,0.25,0v1.3486328C8.125,11.7431641,8.0688477,11.7900391,8,11.7900391L8,11.7900391z"/>
			</g>
			<g id="Part3">
				<path style="fill:#E6E6E6;" d="M7,11.7900391c-0.0688477,0-0.125-0.046875-0.125-0.1054688v-1.3486328
					c0-0.1171875,0.25-0.1171875,0.25,0v1.3486328C7.125,11.7431641,7.0688477,11.7900391,7,11.7900391L7,11.7900391z"/>
			</g>
			<g id="Part2_1_">
				<path style="fill:#E6E6E6;" d="M6,11.5800781c-0.0688477,0-0.125-0.046875-0.125-0.1054688v-1.2607422
					c0-0.1171875,0.25-0.1171875,0.25,0v1.2607422C6.125,11.5332031,6.0688477,11.5800781,6,11.5800781L6,11.5800781z"/>
			</g>
			<g id="Part1_1_">
				<path style="fill:#E6E6E6;" d="M5,11.1591797c-0.0688477,0-0.125-0.046875-0.125-0.1044922v-1.0517578
					c0-0.1162109,0.25-0.1162109,0.25,0v1.0517578C5.125,11.1123047,5.0688477,11.1591797,5,11.1591797L5,11.1591797z"/>
			</g>
		</g>
		<g id="Right_Eye_9_" style="display:inline;">
			<path style="fill-rule:evenodd;clip-rule:evenodd;fill:#666633;" d="M11,6c0,0.5498047-0.4501953,1-1,1l0,0
				C9.4501953,7,9,6.5498047,9,6V5c0-0.5498047,0.4501953-1,1-1l0,0c0.5498047,0,1,0.4501953,1,1V6z"/>
		</g>
		<g id="Left_Eye_11_" style="display:inline;">
			<path style="fill-rule:evenodd;clip-rule:evenodd;fill:#666633;" d="M6,6c0,0.5498047-0.4501953,1-1,1l0,0
				C4.4501953,7,4,6.5498047,4,6V5c0-0.5498047,0.4501953-1,1-1l0,0c0.5498047,0,1,0.4501953,1,1V6z"/>
		</g>
	</g>
	<g id="Blinking" style="display:none;">
		<g id="Mouth_16_" style="display:inline;">
			<path style="fill-rule:evenodd;clip-rule:evenodd;fill:#666633;" d="M8.0639648,10.5
				c-2.4985352,0-3.7915039-1.2929688-3.7915039-1.2929688C3.8837891,8.8183594,3.6889648,8.9326172,3.840332,9.4619141
				c0,0,0.7250977,2.5380859,4.2241211,2.5380859c3.5009766,0,4.2265625-2.5380859,4.2265625-2.5380859
				c0.1503906-0.5292969-0.0449219-0.6455078-0.4365234-0.2587891C11.8544922,9.203125,10.5449219,10.5,8.0639648,10.5z"/>
		</g>
		<g id="Mouth_15_" style="display:inline;">
			<path style="fill-rule:evenodd;clip-rule:evenodd;fill:#666633;" d="M3.3818359,9.0273438
				C2.7651367,9.6435547,2.4116211,9.7792969,2.4116211,9.7792969c-0.2568359,0.0986328-0.2685547,0.2861328-0.0263672,0.4160156
				c0,0,0.625,0.3359375,1.4882812-0.5273438c0.8637695-0.8642578,0.5283203-1.4887695,0.5283203-1.4887695
				c-0.1303711-0.2421875-0.2919922-0.222168-0.359375,0.0444336C4.0424805,8.2236328,3.9936523,8.4155273,3.3818359,9.0273438z"/>
		</g>
		<g id="Right_Eye_10_" style="display:inline;">
			<path style="fill-rule:evenodd;clip-rule:evenodd;fill:#666633;" d="M11,6c0,0.5498047-0.4501953,1-1,1l0,0
				C9.4501953,7,9,6.5498047,9,6V5c0-0.5498047,0.4501953-1,1-1l0,0c0.5498047,0,1,0.4501953,1,1V6z"/>
		</g>
		<path id="Left_Eye_13_" style="display:inline;fill-rule:evenodd;clip-rule:evenodd;fill:#666633;" d="M7,6.1240234
			c0-0.3212891,0.0864258-0.5839844-0.4633789-0.5839844C6.1152344,5.5400391,5.9985352,5.75,5.0058594,5.75
			c-0.9746094,0-1.1928711-0.2099609-1.5297852-0.2099609C2.9262695,5.5400391,3,5.8027344,3,6.1240234S4,7,5,7
			C5.9868164,7,7,6.4453125,7,6.1240234z"/>
	</g>
	<g id="Kissing" style="display:none;">
		<g id="Mouth_17_" style="display:inline;">
			<path id="Frame_1_" style="fill-rule:evenodd;clip-rule:evenodd;fill:#666633;" d="M9.0537109,9.2705078
				c-0.8745117-1.1865234-1.3793945-0.0625-1.5541992,0.1728516c-0.1767578-0.2353516-0.6796875-1.359375-1.5556641-0.1728516
				C5.1152344,10.3925781,3.2275391,10.7207031,4,10.7207031c1.5966797,0,1.7709961,1.7138672,3,1.7138672
				c0.4604492,0,0.546875,0,1,0c1.2558594,0,1.4277344-1.7138672,3-1.7138672
				C11.7832031,10.7207031,9.8242188,10.3154297,9.0537109,9.2705078z"/>
			<path id="Lips" style="fill-rule:evenodd;clip-rule:evenodd;fill:#FF0000;" d="M8.8583984,9.5595703
				C8.1791992,8.7099609,7.6523438,9.4833984,7.4995117,9.6884766c-0.1538086-0.2050781-0.7631836-0.9624023-1.359375-0.1289062
				c-0.7089844,0.9912109-2.300293,0.9951172-1.6313477,1.0810547C5.8496094,10.8144531,5.9438477,12,7.0175781,12
				c0.402832,0,0.5664062,0,0.9624023,0c1.0981445,0,1.1508789-1.2001953,2.5102539-1.359375
				C11.1699219,10.5605469,9.5664062,10.4453125,8.8583984,9.5595703z"/>
		</g>
		<path id="Right_Eye_12_" style="display:inline;fill-rule:evenodd;clip-rule:evenodd;fill:#666633;" d="M12.5029297,5.8759766
			c0,0.3212891,0.0869141,0.5839844-0.4638672,0.5839844c-0.4208984,0-0.5371094-0.2099609-1.5302734-0.2099609
			c-0.9746094,0-1.1923828,0.2099609-1.5297852,0.2099609c-0.5498047,0-0.4760742-0.2626953-0.4760742-0.5839844
			s1-0.8759766,2-0.8759766C11.4902344,5,12.5029297,5.5546875,12.5029297,5.8759766z"/>
		<path id="Left_Eye_12_" style="display:inline;fill-rule:evenodd;clip-rule:evenodd;fill:#666633;" d="M6.503418,5.8759766
			c0,0.3212891,0.0864258,0.5839844-0.4633789,0.5839844C5.6186523,6.4599609,5.5019531,6.25,4.5092773,6.25
			c-1.1142578,0-0.8930664,0.2099609-1.5297852,0.2099609c-0.5498047,0-0.4760742-0.2626953-0.4760742-0.5839844
			S3.503418,5,4.503418,5C5.4902344,5,6.503418,5.5546875,6.503418,5.8759766z"/>
	</g>
	<g id="Grinning" style="display:none;">
		<g id="Mouth_10_" style="display:inline;">
			<path style="fill-rule:evenodd;clip-rule:evenodd;fill:#666633;" d="M7.4985352,10.5
				C5,10.5,3.7070312,9.2070312,3.7070312,9.2070312C3.3183594,8.8183594,3.1235352,8.9326172,3.2749023,9.4619141
				C3.2749023,9.4619141,4,12,7.4990234,12C11,12,11.7255859,9.4619141,11.7255859,9.4619141
				c0.1503906-0.5292969-0.0449219-0.6455078-0.4365234-0.2587891C11.2890625,9.203125,9.9794922,10.5,7.4985352,10.5z"/>
		</g>
		<g id="Left_Eye_8_" style="display:inline;">
			<path style="fill:#666633;" d="M2.4272461,5.7402344C2.1923828,5.8828125,2.2250977,6,2.5,6l0,0
				c0.2749023,0,0.690918-0.1191406,0.9243164-0.2641602l1.3481445-0.8393555
				C5.0058594,4.7514648,5.309082,4.8271484,5.4467773,5.0654297l0.2900391,0.5014648C5.8745117,5.8051758,6.2119141,6,6.4868164,6
				H6.5c0.2749023,0,0.3818359-0.1914062,0.237793-0.4257812L5.8979492,4.2128906
				c-0.144043-0.234375-0.4545898-0.3085938-0.6894531-0.1660156L2.4272461,5.7402344z"/>
		</g>
		<g id="Left_Eye_9_" style="display:inline;">
			<path style="fill:#666633;" d="M12.5742188,5.7402344C12.8085938,5.8828125,12.7763672,6,12.5009766,6H12.5
				c-0.2753906,0-0.6914062-0.1191406-0.9248047-0.2641602l-1.3466797-0.8393555
				C9.9951172,4.7514648,9.6914062,4.8271484,9.5537109,5.0654297L9.2636719,5.5668945C9.1259766,5.8051758,8.7885742,6,8.5136719,6
				H8.5C8.2250977,6,8.1181641,5.8085938,8.2626953,5.574707l0.8398438-1.3623047
				C9.2470703,3.9785156,9.5576172,3.9042969,9.7919922,4.046875L12.5742188,5.7402344z"/>
		</g>
	</g>
	<g id="Dumb" style="display:none;">
		<g id="Mouth_7_">
			<path style="display:inline;fill-rule:evenodd;clip-rule:evenodd;fill:#666633;" d="M10.9257812,8.2460938
				c-0.1367188-0.2382812-0.4414062-0.3183594-0.6767578-0.1777344l-6.015625,3.6054688
				c-0.2358398,0.1416016-0.3173828,0.4521484-0.1811523,0.6914062l0.0219727,0.0380859
				c0.1362305,0.2392578,0.4404297,0.3193359,0.6762695,0.1777344l6.0161133-3.6044922
				c0.2353516-0.1416016,0.3173828-0.4521484,0.1806641-0.6914062L10.9257812,8.2460938z"/>
		</g>
		<g id="Mouth_6_">
			<path style="display:inline;fill-rule:evenodd;clip-rule:evenodd;fill:#666633;" d="M10.9257812,12.4033203
				c-0.1367188,0.2392578-0.4414062,0.3193359-0.6767578,0.1777344l-6.015625-3.6044922
				C3.9975586,8.8349609,3.9160156,8.5244141,4.0522461,8.2841797l0.0219727-0.0371094
				c0.1362305-0.2392578,0.4404297-0.3193359,0.6762695-0.1787109l6.0161133,3.6054688
				c0.2353516,0.1416016,0.3173828,0.4521484,0.1806641,0.6914062L10.9257812,12.4033203z"/>
		</g>
		<g id="Mouth_11_" style="display:inline;">
			<g id="Part2_4_">
				<path style="fill-rule:evenodd;clip-rule:evenodd;fill:#666633;" d="M9.8925781,8.7324219
					c0.2636719,0.1943359,0.1162109,0.6210938-0.3261719,0.9472656l-3.1762695,2.3476562
					c-0.4423828,0.3261719-1.0195312,0.4345703-1.2827148,0.2402344s-0.1166992-0.6210938,0.3256836-0.9472656l3.1767578-2.347168
					C9.0517578,8.6464844,9.6289062,8.5380859,9.8925781,8.7324219z"/>
			</g>
			<g id="Part1_4_">
				<path style="fill-rule:evenodd;clip-rule:evenodd;fill:#666633;" d="M9.8925781,12.2675781
					c-0.2636719,0.1943359-0.8408203,0.0859375-1.2827148-0.2402344L5.4331055,9.6796875
					C4.9907227,9.3535156,4.8442383,8.9267578,5.1074219,8.7324219s0.840332-0.0859375,1.2827148,0.2407227l3.1762695,2.347168
					C10.0087891,11.6464844,10.15625,12.0732422,9.8925781,12.2675781z"/>
			</g>
		</g>
		<g id="Right_Eye_6_" style="display:inline;">
			<path style="fill-rule:evenodd;clip-rule:evenodd;fill:#666633;" d="M11,6c0,0.5498047-0.4501953,1-1,1l0,0
				C9.4501953,7,9,6.5498047,9,6V5c0-0.5498047,0.4501953-1,1-1l0,0c0.5498047,0,1,0.4501953,1,1V6z"/>
		</g>
		<g id="Left_Eye_6_" style="display:inline;">
			<path style="fill-rule:evenodd;clip-rule:evenodd;fill:#666633;" d="M6,6c0,0.5498047-0.4501953,1-1,1l0,0
				C4.4501953,7,4,6.5498047,4,6V5c0-0.5498047,0.4501953-1,1-1l0,0c0.5498047,0,1,0.4501953,1,1V6z"/>
		</g>
	</g>
	<g id="Sick">
		<g id="Mouth_14_">
			<g id="Part2_2_">
				<path style="fill-rule:evenodd;clip-rule:evenodd;fill:#666633;" d="M9.8925781,8.7324219
					c0.2636719,0.1943359,0.1162109,0.6210938-0.3261719,0.9472656l-3.1762695,2.3476562
					c-0.4423828,0.3261719-1.0195312,0.4345703-1.2827148,0.2402344s-0.1166992-0.6210938,0.3256836-0.9472656l3.1767578-2.347168
					C9.0517578,8.6464844,9.6289062,8.5380859,9.8925781,8.7324219z"/>
			</g>
			<g id="Part1_2_">
				<path style="fill-rule:evenodd;clip-rule:evenodd;fill:#666633;" d="M9.8925781,12.2675781
					c-0.2636719,0.1943359-0.8408203,0.0859375-1.2827148-0.2402344L5.4331055,9.6796875
					C4.9907227,9.3535156,4.8442383,8.9267578,5.1074219,8.7324219s0.840332-0.0859375,1.2827148,0.2407227l3.1762695,2.347168
					C10.0087891,11.6464844,10.15625,12.0732422,9.8925781,12.2675781z"/>
			</g>
		</g>
		<path id="Left_Eye_14_" style="fill-rule:evenodd;clip-rule:evenodd;fill:#666633;" d="M6.2358398,5.2094727
			C6.3447266,5.4624023,6.0209961,5.847168,5.5161133,6.0649414L4.1381836,6.659668
			C3.6333008,6.8774414,3.1308594,6.8491211,3.0219727,6.5966797s0.2148438-0.637207,0.7197266-0.8554688l1.3779297-0.5942383
			C5.6245117,4.9287109,6.1269531,4.9570312,6.2358398,5.2094727z"/>
		<path id="Left_Eye_15_" style="fill-rule:evenodd;clip-rule:evenodd;fill:#666633;" d="M11.9785156,6.5966797
			c0.1083984-0.2529297-0.2148438-0.6376953-0.7207031-0.8554688L9.8808594,5.1464844
			C9.375,4.9287109,8.8730469,4.9570312,8.7646484,5.2094727c-0.109375,0.2524414,0.2148438,0.637207,0.7197266,0.8554688
			l1.3769531,0.5942383C11.3671875,6.8774414,11.8691406,6.8491211,11.9785156,6.5966797z"/>
	</g>
	<g id="Sleepy" style="display:none;">
		<g id="Mouth_3_" style="display:inline;">
			<path style="fill-rule:evenodd;clip-rule:evenodd;fill:#666633;" d="M10.5,10.5c0,0.2753906-0.4501953,0.5-1,0.5H5.5004883
				c-0.5498047,0-1-0.2246094-1-0.5s0.4501953-0.5,1-0.5H9.5C10.0498047,10,10.5,10.2246094,10.5,10.5z"/>
		</g>
		<g id="Right_Eye_3_" style="display:inline;">
			<path style="fill-rule:evenodd;clip-rule:evenodd;fill:#666633;" d="M12,5.5C12,5.7749023,11.5498047,6,11,6H9.5
				c-0.5498047,0-1-0.2250977-1-0.5S8.9501953,5,9.5,5H11C11.5498047,5,12,5.2250977,12,5.5z"/>
		</g>
		<g id="Left_Eye_3_" style="display:inline;">
			<path style="fill-rule:evenodd;clip-rule:evenodd;fill:#666633;" d="M6.5,5.5c0,0.2749023-0.4501953,0.5-1,0.5H4
				C3.4501953,6,3,5.7749023,3,5.5S3.4501953,5,4,5h1.5C6.0498047,5,6.5,5.2250977,6.5,5.5z"/>
		</g>
	</g>
	<g id="Mellow" style="display:none;">
		<g id="Mouth_2_" style="display:inline;">
			<path style="fill-rule:evenodd;clip-rule:evenodd;fill:#666633;" d="M11,10.5c0,0.2753906-0.4501953,0.5-1,0.5H5
				c-0.5498047,0-1-0.2246094-1-0.5S4.4501953,10,5,10h5C10.5498047,10,11,10.2246094,11,10.5z"/>
		</g>
		<g id="Right_Eye_4_" style="display:inline;">
			<path style="fill-rule:evenodd;clip-rule:evenodd;fill:#666633;" d="M11,6c0,0.5498047-0.4501953,1-1,1l0,0
				C9.4501953,7,9,6.5498047,9,6V5c0-0.5498047,0.4501953-1,1-1l0,0c0.5498047,0,1,0.4501953,1,1V6z"/>
		</g>
		<g id="Left_Eye_4_" style="display:inline;">
			<path style="fill-rule:evenodd;clip-rule:evenodd;fill:#666633;" d="M6,6c0,0.5498047-0.4501953,1-1,1l0,0
				C4.4501953,7,4,6.5498047,4,6V5c0-0.5498047,0.4501953-1,1-1l0,0c0.5498047,0,1,0.4501953,1,1V6z"/>
		</g>
	</g>
	<g id="Thinking" style="display:none;">
		<g id="Mouth_8_" style="display:inline;">
			<path style="fill-rule:evenodd;clip-rule:evenodd;fill:#666633;" d="M11,10.5c0,0.2753906-0.4501953,0.5-1,0.5H5
				c-0.5498047,0-1-0.2246094-1-0.5S4.4501953,10,5,10h5C10.5498047,10,11,10.2246094,11,10.5z"/>
		</g>
		<g id="Right_Eye_7_" style="display:inline;">
			<path style="fill-rule:evenodd;clip-rule:evenodd;fill:#666633;" d="M11,4.5c0,0.5498047-0.4501953,1-1,1l0,0
				c-0.5498047,0-1-0.4501953-1-1V3c0-0.5498047,0.4501953-1,1-1l0,0c0.5498047,0,1,0.4501953,1,1V4.5z"/>
		</g>
		<g id="Left_Eye_7_" style="display:inline;">
			<path style="fill-rule:evenodd;clip-rule:evenodd;fill:#666633;" d="M6,4.5c0,0.5498047-0.4501953,1-1,1l0,0
				c-0.5498047,0-1-0.4501953-1-1V3c0-0.5498047,0.4501953-1,1-1l0,0c0.5498047,0,1,0.4501953,1,1V4.5z"/>
		</g>
	</g>
	<g id="Unsure" style="display:none;">
		<g id="Mouth_5_" style="display:inline;">
			<path style="fill-rule:evenodd;clip-rule:evenodd;fill:#666633;" d="M11.3769531,11.5126953
				c-0.0625,0.2685547-0.3310547,0.4316406-0.5976562,0.3632812L3.984375,10.140625
				c-0.2666016-0.0683594-0.4335938-0.3427734-0.3710938-0.6113281l0.0097656-0.0429688
				c0.0625-0.2675781,0.3310547-0.4306641,0.5976562-0.3632812l6.7949219,1.7353516
				c0.2666016,0.0683594,0.4335938,0.3427734,0.3710938,0.6113281L11.3769531,11.5126953z"/>
		</g>
		<g id="Right_Eye_5_" style="display:inline;">
			<path style="fill-rule:evenodd;clip-rule:evenodd;fill:#666633;" d="M11,6c0,0.5498047-0.4501953,1-1,1l0,0
				C9.4501953,7,9,6.5498047,9,6V5c0-0.5498047,0.4501953-1,1-1l0,0c0.5498047,0,1,0.4501953,1,1V6z"/>
		</g>
		<g id="Left_Eye_5_" style="display:inline;">
			<path style="fill-rule:evenodd;clip-rule:evenodd;fill:#666633;" d="M6,6c0,0.5498047-0.4501953,1-1,1l0,0
				C4.4501953,7,4,6.5498047,4,6V5c0-0.5498047,0.4501953-1,1-1l0,0c0.5498047,0,1,0.4501953,1,1V6z"/>
		</g>
	</g>
	<g id="Scared" style="display:none;">
		<g id="Mouth_4_" style="display:inline;">
			<path style="fill-rule:evenodd;clip-rule:evenodd;fill:#666633;" d="M11,10.5c0,1.375-1.3496094,2.5-3,2.5H7
				c-1.6499023,0-3-1.125-3-2.5S5.3500977,8,7,8h1C9.6503906,8,11,9.125,11,10.5z"/>
		</g>
		<g id="Right_Eye_2_" style="display:inline;">
			<path style="fill-rule:evenodd;clip-rule:evenodd;fill:#666633;" d="M11.5,4.5c0,0.8251953-0.5625,1.5004883-1.25,1.5004883
				S9,5.3251953,9,4.5C9,3.675293,9.5625,3,10.25,3S11.5,3.675293,11.5,4.5z"/>
		</g>
		<g id="Left_Eye_2_" style="display:inline;">
			<path style="fill-rule:evenodd;clip-rule:evenodd;fill:#666633;" d="M6,4.5c0,0.8251953-0.5625,1.5004883-1.25,1.5004883
				S3.5,5.3251953,3.5,4.5C3.5,3.675293,4.0625,3,4.75,3S6,3.675293,6,4.5z"/>
		</g>
	</g>
	<g id="Yawning" style="display:none;">
		<g id="Mouth_12_" style="display:inline;">
			<path style="fill-rule:evenodd;clip-rule:evenodd;fill:#666633;" d="M12,10.5c0,1.375-2.0253906,2.5-4.5,2.5
				C5.0249023,13,3,11.875,3,10.5S5.0249023,8,7.5,8C9.9746094,8,12,9.125,12,10.5z"/>
		</g>
		<g id="Right_Eye_8_" style="display:inline;">
			<path style="fill-rule:evenodd;clip-rule:evenodd;fill:#666633;" d="M12,5.5C12,5.7749023,11.5498047,6,11,6H9.5
				c-0.5498047,0-1-0.2250977-1-0.5S8.9501953,5,9.5,5H11C11.5498047,5,12,5.2250977,12,5.5z"/>
		</g>
		<g id="Left_Eye_10_" style="display:inline;">
			<path style="fill-rule:evenodd;clip-rule:evenodd;fill:#666633;" d="M6.5,5.5c0,0.2749023-0.4501953,0.5-1,0.5H4
				C3.4501953,6,3,5.7749023,3,5.5S3.4501953,5,4,5h1.5C6.0498047,5,6.5,5.2250977,6.5,5.5z"/>
		</g>
	</g>
	<g id="Sad" style="display:none;">
		<path id="Mouth_1_" style="display:inline;fill-rule:evenodd;clip-rule:evenodd;fill:#666633;" d="M7.4985352,10.25
			C6.15625,10.25,5.0771484,10.6103516,4,11.5C4.1503906,10.1025391,5.6503906,9,7.4990234,9
			C9.3486328,9,10.8505859,10.1025391,11,11.5C10.0478516,10.7148438,8.8422852,10.25,7.4985352,10.25z"/>
		<g id="Right_Eye_1_" style="display:inline;">
			<path style="fill-rule:evenodd;clip-rule:evenodd;fill:#666633;" d="M12,6c0,0.5498047-0.4501953,1-1,1h-1
				C9.4501953,7,9,6.5498047,9,6l0,0c0-0.5498047,0.4501953-1,1-1h1C11.5498047,5,12,5.4501953,12,6L12,6z"/>
		</g>
		<g id="Left_Eye_1_" style="display:inline;">
			<path style="fill-rule:evenodd;clip-rule:evenodd;fill:#666633;" d="M6,6c0,0.5498047-0.4501953,1-1,1H4
				C3.4501953,7,3,6.5498047,3,6l0,0c0-0.5498047,0.4501953-1,1-1h1C5.5498047,5,6,5.4501953,6,6L6,6z"/>
		</g>
	</g>
	<g id="Smiling" style="display:none;">
		<g id="Mouth_9_" style="display:inline;">
			<path style="fill-rule:evenodd;clip-rule:evenodd;fill:#666633;" d="M7.4985352,10.5
				C5,10.5,3.7070312,9.2070312,3.7070312,9.2070312C3.3183594,8.8183594,3.1235352,8.9326172,3.2749023,9.4619141
				C3.2749023,9.4619141,4,12,7.4990234,12C11,12,11.7255859,9.4619141,11.7255859,9.4619141
				c0.1503906-0.5292969-0.0449219-0.6455078-0.4365234-0.2587891C11.2890625,9.203125,9.9794922,10.5,7.4985352,10.5z"/>
		</g>
		<g id="Right_Eye" style="display:inline;">
			<path style="fill-rule:evenodd;clip-rule:evenodd;fill:#666633;" d="M11,6c0,0.5498047-0.4501953,1-1,1l0,0
				C9.4501953,7,9,6.5498047,9,6V5c0-0.5498047,0.4501953-1,1-1l0,0c0.5498047,0,1,0.4501953,1,1V6z"/>
		</g>
		<g id="Left_Eye" style="display:inline;">
			<path style="fill-rule:evenodd;clip-rule:evenodd;fill:#666633;" d="M6,6c0,0.5498047-0.4501953,1-1,1l0,0
				C4.4501953,7,4,6.5498047,4,6V5c0-0.5498047,0.4501953-1,1-1l0,0c0.5498047,0,1,0.4501953,1,1V6z"/>
		</g>
	</g>
	<g id="Tounge" style="display:none;">
		<linearGradient id="Part2_3_" gradientUnits="userSpaceOnUse" x1="9.2226562" y1="11.2451172" x2="10.7993746" y2="13.4969044">
			<stop  offset="0" style="stop-color:#FF6600"/>
			<stop  offset="1" style="stop-color:#ED1C24"/>
		</linearGradient>
		<path id="Part2" style="display:inline;fill-rule:evenodd;clip-rule:evenodd;fill:url(#Part2_3_);" d="M7,11.9765625
			c2,0,1.7084961,2.6904297,4.0419922,1.4824219c2.3662109-1.2246094,0.1875-3.1044922,0.1875-3.1044922
			s-0.6445312,0.1523438-1.8857422,0.7119141C8.1889648,11.5869141,7,11.9765625,7,11.9765625z"/>
		<path id="Part1" style="display:inline;fill-rule:evenodd;clip-rule:evenodd;fill:#993300;" d="M9,11.2167969
			c0,0,0.3730469,0.140625,0.6660156,0.3662109c0.3652344,0.2792969,0.6669922,0.6875,0.6669922,0.6875
			S10.1914062,11.7695312,10,11.375c-0.1298828-0.2695312-0.2373047-0.4912109-0.2373047-0.4912109L9,11.2167969z"/>
	</g>
</g>
<g id="Hilfslinien">
</g>
</svg>
