<?xml version="1.0" encoding="utf-8"?>
<!--<?xml-stylesheet type="text/css" href="svg.css"?>-->
<!DOCTYPE svg PUBLIC "-//W3C//DTD SVG 1.1//EN" "http://www.w3.org/Graphics/SVG/1.1/DTD/svg11.dtd">
<svg version="1.1" xmlns="http://www.w3.org/2000/svg" xmlns:xlink="http://www.w3.org/1999/xlink" x="0px" y="0px" width="16px" height="16px" viewBox="0 0 16 16" xml:space="preserve">
	
	<title>Pinch</title>
	<desc>Pinch Smiley</desc>
	
	<!--
		@author		Harald Szekely 
		@copyright	2011 WoltLab GmbH 
		@license	GNU Lesser General Public License <http://opensource.org/licenses/lgpl-license.php> 
	--> 
	
	<defs>
		
	</defs>
	
	<g id="SmileyBody">
		<g id="YellowBody">
			<path class="Lower" style="fill-rule: evenodd; clip-rule: evenodd; fill: #fff;" d="M0,8.5712891
				C0,4.46875,3.3574219,1.1425781,7.5,1.1425781S15,4.46875,15,8.5712891C15,12.6748047,11.6425781,16,7.5,16
				S0,12.6748047,0,8.5712891z"/>
			<g class="UpperYellow">
				<path id="Frame" style="fill-rule: evenodd; clip-rule: evenodd; fill: #c93;" d="M0,7.5C0,3.3579102,3.3574219,0,7.5004883,0
					C11.6425781,0,15,3.3579102,15,7.5c0,4.1425781-3.3574219,7.5-7.4995117,7.5C3.3574219,15,0,11.6425781,0,7.5z"/>
				<radialGradient id="InnerFill" cx="8.0786133" cy="5.8706055" r="6.9639564" gradientTransform="matrix(1.0052 0 0 1.0052 -0.6572266 -0.1896458)" gradientUnits="userSpaceOnUse">
					<stop offset="0" style="stop-color: #fff"/>
					<stop offset=".472393" style="stop-color: #fff57a"/>
					<stop offset=".6076587" style="stop-color: #fff477"/>
					<stop offset=".7136346" style="stop-color: #fff06d"/>
					<stop offset=".8096381" style="stop-color: #feeb5c"/>
					<stop offset=".8997712" style="stop-color: #fde345"/>
					<stop offset=".9850296" style="stop-color: #fcd827"/>
					<stop offset="1" style="stop-color: #fcd621"/>
				</radialGradient>
				<path id="Inner" style="fill-rule: evenodd; clip-rule: evenodd; fill: url(#InnerFill);" d="M0.5,7.5004883
					C0.5,3.6337891,3.6333008,0.5,7.5009766,0.5C11.3681641,0.5,14.5,3.6337891,14.5,7.5004883
					C14.5,11.3662109,11.3681641,14.5,7.5009766,14.5C3.6333008,14.5,0.5,11.3662109,0.5,7.5004883z"/>
			</g>
		</g>
	</g>
	
	<g id="SmileyFace">
		<g id="PinchSmiley">
			<path id="Mouth" style="fill-rule: evenodd; clip-rule: evenodd; fill: #663;" d="M7.3491211,11.2509766
				c-0.0859375,0.2265625-0.3701172,0.3515625-0.6308594,0.2763672l-2.375-0.6806641
				c-0.2607422-0.0751953-0.4042969-0.3212891-0.3183594-0.5478516l0.0004883-0.0009766
				c0.0859375-0.2265625,0.3701172-0.3515625,0.6308594-0.2763672l2.375,0.6806641
				C7.2919922,10.7773438,7.4355469,11.0234375,7.3496094,11.25L7.3491211,11.2509766z"/>
			<path id="RightEye" style="fill-rule: evenodd; clip-rule: evenodd; fill: #663;" d="M9.9130859,3.3183594
				c0.2421875-0.105957,1.0537109-0.0942383,1.0537109-0.0942383L8.5,5.4995117l2.4667969,2.2758789
				c0,0-0.8115234,0.0117188-1.0537109-0.0942383C9.1679688,7.3554688,7.5,5.4995117,7.5,5.4995117
				S9.1679688,3.644043,9.9130859,3.3183594z"/>
			<path id="LeftEye" style="fill-rule: evenodd; clip-rule: evenodd; fill: #663;" d="M5.0869141,3.3183594
				c-0.2421875-0.105957-1.0537109-0.0942383-1.0537109-0.0942383L6.5,5.4995117L4.0332031,7.7753906
				c0,0,0.8115234,0.0117188,1.0537109-0.0942383C5.8320312,7.3554688,7.5,5.4995117,7.5,5.4995117
				S5.8320312,3.644043,5.0869141,3.3183594z"/>
		</g>
	</g>
</svg>
