<?xml version="1.0" encoding="utf-8"?>
<!--<?xml-stylesheet type="text/css" href="svg.css"?>-->
<!DOCTYPE svg PUBLIC "-//W3C//DTD SVG 1.1//EN" "http://www.w3.org/Graphics/SVG/1.1/DTD/svg11.dtd">
<svg version="1.1" xmlns="http://www.w3.org/2000/svg" xmlns:xlink="http://www.w3.org/1999/xlink" x="0px" y="0px" width="16px" height="16px" viewBox="0 0 16 16" xml:space="preserve">
	
	<title>Attention</title> 
	<desc>Attention Smiley</desc> 
	
	<!--
		@author		Harald Szekely 
		@copyright	2011 WoltLab GmbH 
		@license	GNU Lesser General Public License <http://opensource.org/licenses/lgpl-license.php> 
	--> 
	
	<defs>
		
	</defs>
	
	<g id="SmileyBody">
		<g id="YellowBody">
			<path class="Lower" style="fill-rule: evenodd; clip-rule: evenodd; fill: #fff;" d="M0,8.5712891
				C0,4.46875,3.3574219,1.1425781,7.5,1.1425781S15,4.46875,15,8.5712891C15,12.6748047,11.6425781,16,7.5,16
				S0,12.6748047,0,8.5712891z"/>
			<g class="UpperYellow">
				<path id="Frame" style="fill-rule: evenodd; clip-rule: evenodd; fill: #c93;" d="M0,7.5C0,3.3579102,3.3574219,0,7.5004883,0
					C11.6425781,0,15,3.3579102,15,7.5c0,4.1425781-3.3574219,7.5-7.4995117,7.5C3.3574219,15,0,11.6425781,0,7.5z"/>
				<radialGradient id="InnerFill" cx="8.0786133" cy="5.8706055" r="6.9639564" gradientTransform="matrix(1.0052 0 0 1.0052 -0.6572266 -0.1896458)" gradientUnits="userSpaceOnUse">
					<stop offset="0" style="stop-color: #fff"/>
					<stop offset=".472393" style="stop-color: #fff57a"/>
					<stop offset=".6076587" style="stop-color: #fff477"/>
					<stop offset=".7136346" style="stop-color: #fff06d"/>
					<stop offset=".8096381" style="stop-color: #feeb5c"/>
					<stop offset=".8997712" style="stop-color: #fde345"/>
					<stop offset=".9850296" style="stop-color: #fcd827"/>
					<stop offset="1" style="stop-color: #fcd621"/>
				</radialGradient>
				<path id="Inner" style="fill-rule: evenodd; clip-rule: evenodd; fill: url(#InnerFill);" d="M0.5,7.5004883
					C0.5,3.6337891,3.6333008,0.5,7.5009766,0.5C11.3681641,0.5,14.5,3.6337891,14.5,7.5004883
					C14.5,11.3662109,11.3681641,14.5,7.5009766,14.5C3.6333008,14.5,0.5,11.3662109,0.5,7.5004883z"/>
			</g>
		</g>
	</g>
	
	<g id="SmileyFace">
		<g id="AttentionSmiley">
			<path style="fill:#663;" d="M6.2666016,2.987793c0-0.5498047,0.4501953-1,1-1h0.46875c0.5488281,0,1,0.4501953,1,1v2.371582
				c0,0.5498047-0.1025391,1.4384766-0.2265625,1.9741211L8.3115234,8.1787109
				c-0.125,0.5356445-0.4931641,0.9736328-0.8183594,0.9736328c-0.3261719,0-0.6914062-0.4384766-0.8134766-0.9746094
				L6.4873047,7.3344727C6.3662109,6.7983398,6.2666016,5.9091797,6.2666016,5.359375V2.987793z"/>
			<path style="fill:#663;" d="M7.5019531,13.0136719c-0.7587891,0-1.3735352-0.609375-1.3735352-1.3535156
				c0-0.7519531,0.6147461-1.3535156,1.3735352-1.3535156c0.7568359,0,1.3701172,0.6015625,1.3701172,1.3535156
				C8.8720703,12.4042969,8.2587891,13.0136719,7.5019531,13.0136719z"/>
		</g>
	</g>
</svg>
