<?xml version="1.0" encoding="utf-8"?>
<!--<?xml-stylesheet type="text/css" href="svg.css"?>-->
<!DOCTYPE svg PUBLIC "-//W3C//DTD SVG 1.1//EN" "http://www.w3.org/Graphics/SVG/1.1/DTD/svg11.dtd">
<svg version="1.1" xmlns="http://www.w3.org/2000/svg" xmlns:xlink="http://www.w3.org/1999/xlink" x="0px" y="0px" width="16px" height="16px" viewBox="0 0 16 16" xml:space="preserve">
	
	<title>Yawning</title>
	<desc>Yawning Smiley</desc>
	
	<!--
		@author		Harald Szekely 
		@copyright	2011 WoltLab GmbH 
		@license	GNU Lesser General Public License <http://opensource.org/licenses/lgpl-license.php> 
	--> 
	
	<defs>
		
	</defs>
	
	<g id="SmileyBody">
		<g id="YellowBody">
			<path class="Lower" style="fill-rule: evenodd; clip-rule: evenodd; fill: #fff;" d="M0,8.5712891
				C0,4.46875,3.3574219,1.1425781,7.5,1.1425781S15,4.46875,15,8.5712891C15,12.6748047,11.6425781,16,7.5,16
				S0,12.6748047,0,8.5712891z"/>
			<g class="UpperYellow">
				<path id="Frame" style="fill-rule: evenodd; clip-rule: evenodd; fill: #c93;" d="M0,7.5C0,3.3579102,3.3574219,0,7.5004883,0
					C11.6425781,0,15,3.3579102,15,7.5c0,4.1425781-3.3574219,7.5-7.4995117,7.5C3.3574219,15,0,11.6425781,0,7.5z"/>
				<radialGradient id="InnerFill" cx="8.0786133" cy="5.8706055" r="6.9639564" gradientTransform="matrix(1.0052 0 0 1.0052 -0.6572266 -0.1896458)" gradientUnits="userSpaceOnUse">
					<stop offset="0" style="stop-color: #fff"/>
					<stop offset=".472393" style="stop-color: #fff57a"/>
					<stop offset=".6076587" style="stop-color: #fff477"/>
					<stop offset=".7136346" style="stop-color: #fff06d"/>
					<stop offset=".8096381" style="stop-color: #feeb5c"/>
					<stop offset=".8997712" style="stop-color: #fde345"/>
					<stop offset=".9850296" style="stop-color: #fcd827"/>
					<stop offset="1" style="stop-color: #fcd621"/>
				</radialGradient>
				<path id="Inner" style="fill-rule: evenodd; clip-rule: evenodd; fill: url(#InnerFill);" d="M0.5,7.5004883
					C0.5,3.6337891,3.6333008,0.5,7.5009766,0.5C11.3681641,0.5,14.5,3.6337891,14.5,7.5004883
					C14.5,11.3662109,11.3681641,14.5,7.5009766,14.5C3.6333008,14.5,0.5,11.3662109,0.5,7.5004883z"/>
			</g>
		</g>
	</g>
	
	<g id="SmileyFace">
		<g id="YawningSmiley">
			<path id="Mouth" style="fill-rule: evenodd; clip-rule: evenodd; fill: #663;" d="M12,10.5c0,1.375-2.0253906,2.5-4.5,2.5
				C5.0249023,13,3,11.875,3,10.5S5.0249023,8,7.5,8C9.9746094,8,12,9.125,12,10.5z"/>
			<g id="Tounge">
				<path id="Frame" style="fill: #930;" d="M7.5,11.2099609c0,0-3.015625-1.1943359-1.6884766,1.6191406
					c0,0,0.7270508,0.1708984,1.1225586,0.1708984H8.065918c0.3955078,0,1.1225586-0.1933594,1.1225586-0.1933594
					C10.5,10.015625,7.5,11.2099609,7.5,11.2099609z"/>
				<linearGradient id="InnerFill2" gradientUnits="userSpaceOnUse" x1="7.4995117" y1="11.25" x2="7.4995117" y2="13">
					<stop offset="0" style="stop-color: #f00"/>
					<stop offset=".2919121" style="stop-color: #fc0202"/>
					<stop offset=".5263072" style="stop-color: #f2080a"/>
					<stop offset=".7407469" style="stop-color: #e11316"/>
					<stop offset=".9421886" style="stop-color: #c92227"/>
					<stop offset="1" style="stop-color: #c1272d"/>
				</linearGradient>
				<path id="Inner" style="fill: url(#InnerFill2);" d="M7.5,11.4326172c0,0-2.5-0.9326172-1.4916992,1.4228516
					C6.0083008,12.8554688,6.6508789,13,7,13h1c0.3491211,0,0.9916992-0.1386719,0.9916992-0.1386719
					C10,10.5,7.5,11.4326172,7.5,11.4326172z"/>
			</g>
			<g id="RightEye">
				<path style="fill-rule: evenodd; clip-rule: evenodd; fill:#663;" d="M12,5.5C12,5.7749023,11.5498047,6,11,6H9.5
					c-0.5498047,0-1-0.2250977-1-0.5S8.9501953,5,9.5,5H11C11.5498047,5,12,5.2250977,12,5.5z"/>
			</g>
			<g id="LeftEye">
				<path style="fill-rule: evenodd; clip-rule: evenodd; fill:#663;" d="M6.5,5.5c0,0.2749023-0.4501953,0.5-1,0.5H4
					C3.4501953,6,3,5.7749023,3,5.5S3.4501953,5,4,5h1.5C6.0498047,5,6.5,5.2250977,6.5,5.5z"/>
			</g>
		</g>
	</g>
</svg>
