<?xml version="1.0" encoding="utf-8"?>
<!--<?xml-stylesheet type="text/css" href="svg.css"?>-->
<!DOCTYPE svg PUBLIC "-//W3C//DTD SVG 1.1//EN" "http://www.w3.org/Graphics/SVG/1.1/DTD/svg11.dtd">
<svg version="1.1" xmlns="http://www.w3.org/2000/svg" xmlns:xlink="http://www.w3.org/1999/xlink" x="0px" y="0px" width="16px" height="16px" viewBox="0 0 16 16" xml:space="preserve">
	
	<title>w00t</title> 
	<desc>w00t Smiley</desc> 
	
	<!--
		@author		Harald Szekely 
		@copyright	2011 WoltLab GmbH 
		@license	GNU Lesser General Public License <http://opensource.org/licenses/lgpl-license.php> 
	--> 
	
	<defs>
		
	</defs>
	
	<g id="SmileyBody">
		<g id="YellowBody">
			<path class="Lower" style="fill-rule: evenodd; clip-rule: evenodd; fill: #fff;" d="M0,8.5712891
				C0,4.46875,3.3574219,1.1425781,7.5,1.1425781S15,4.46875,15,8.5712891C15,12.6748047,11.6425781,16,7.5,16
				S0,12.6748047,0,8.5712891z"/>
			<g class="UpperYellow">
				<path id="Frame" style="fill-rule: evenodd; clip-rule: evenodd; fill: #c93;" d="M0,7.5C0,3.3579102,3.3574219,0,7.5004883,0
					C11.6425781,0,15,3.3579102,15,7.5c0,4.1425781-3.3574219,7.5-7.4995117,7.5C3.3574219,15,0,11.6425781,0,7.5z"/>
				<radialGradient id="InnerFill" cx="8.0786133" cy="5.8706055" r="6.9639564" gradientTransform="matrix(1.0052 0 0 1.0052 -0.6572266 -0.1896458)" gradientUnits="userSpaceOnUse">
					<stop offset="0" style="stop-color: #fff"/>
					<stop offset=".472393" style="stop-color: #fff57a"/>
					<stop offset=".6076587" style="stop-color: #fff477"/>
					<stop offset=".7136346" style="stop-color: #fff06d"/>
					<stop offset=".8096381" style="stop-color: #feeb5c"/>
					<stop offset=".8997712" style="stop-color: #fde345"/>
					<stop offset=".9850296" style="stop-color: #fcd827"/>
					<stop offset="1" style="stop-color: #fcd621"/>
				</radialGradient>
				<path id="Inner" style="fill-rule: evenodd; clip-rule: evenodd; fill: url(#InnerFill);" d="M0.5,7.5004883
					C0.5,3.6337891,3.6333008,0.5,7.5009766,0.5C11.3681641,0.5,14.5,3.6337891,14.5,7.5004883
					C14.5,11.3662109,11.3681641,14.5,7.5009766,14.5C3.6333008,14.5,0.5,11.3662109,0.5,7.5004883z"/>
			</g>
		</g>
	</g>
	
	<g id="SmileyFace">
		<g id="w00tSmiley">
			<g id="Mouth">
				<path id="Lips" style="fill-rule: evenodd; clip-rule: evenodd; fill: #663;" d="M7.5,9.734375
					C4.7231445,9.7363281,3.0009766,9.0117188,3.0009766,9.0117188C2.4511719,8.9956055,2.168457,9.4150391,2.3740234,9.9277344
					c0,0,0.3085938,0.7802734,1.1044922,1.5849609S5.5551758,13,7.4990234,13c1.9453125,0,3.2275391-0.6826172,4.0224609-1.4873047
					s1.1044922-1.5849609,1.1044922-1.5849609C12.8320312,9.4150391,12.5498047,8.9956055,12,9.0117188
					C12,9.0117188,10.2568359,9.7324219,7.5,9.734375z"/>
				<path id="Teeth" style="fill-rule: evenodd; clip-rule: evenodd; fill: #fff;" d="M7.5,10.296875
					c-2.4663086,0-4-0.6972656-4-0.6972656c-0.2749023-0.0185547-0.4287109,0.1240234-0.3417969,0.4013672
					c0,0,0.2104492,0.6835938,0.8583984,1.3466797S5.7495117,12.5,7.4990234,12.5
					c1.7509766,0,2.8378906-0.4882812,3.4863281-1.1513672s0.8564453-1.3476562,0.8564453-1.3476562
					C11.9287109,9.7236328,11.7753906,9.5810547,11.5,9.5996094C11.5,9.5996094,9.9472656,10.296875,7.5,10.296875z"/>
			</g>
			<g id="RightEye">
				<path id="EyeR" style="fill-rule: evenodd; clip-rule: evenodd; fill: #663;" d="M12,4.5c0,1.1000977-0.7871094,2-1.75,2
					S8.5,5.6000977,8.5,4.5s0.7871094-2,1.75-2S12,3.3999023,12,4.5z"/>
				<path id="PupilR" style="fill: #fff;" d="M10,5l0.8271484,0.5302734C10.9267578,5.3745117,11,5.1992188,11,5
					c0-0.5527344-0.4453125-1-1-1C9.4492188,4,9,4.4472656,9,5s0.4492188,1,1,1c0.2236328,0,0.4179688-0.0864258,0.5839844-0.2089844L10,5z"/>
				<path id="BrowR" style="fill: #663;" d="M8.9648438,1.8408203c-0.2558594,0.1777344-0.3964844,0.3432617-0.3125,0.3676758
					s0.3789062-0.0722656,0.65625-0.215332l1.4951172-0.7714844c0.2773438-0.1430664,0.7050781-0.1030273,0.9511719,0.0878906
					l0.5400391,0.4208984c0.2460938,0.190918,0.6972656,0.2954102,1.0019531,0.2319336l0.1474609-0.0307617
					c0.3046875-0.0634766,0.3496094-0.2666016,0.0986328-0.4511719l-1.515625-1.1132812
					c-0.2509766-0.1845703-0.6650391-0.1899414-0.921875-0.012207L8.9648438,1.8408203z"/>
			</g>
			<g id="LeftEye">
				<path id="EyeL" style="fill-rule: evenodd; clip-rule: evenodd; fill: #663;" d="M6.5,4.5c0,1.1000977-0.7875977,2-1.75,2S3,5.6000977,3,4.5
					s0.7875977-2,1.75-2S6.5,3.3999023,6.5,4.5z"/>
				<path id="PupilL" style="fill: #fff;" d="M4.90625,5l0.7885742,0.7158203C5.8818359,5.5341797,6,5.2817383,6,5
					c0-0.5527344-0.4472656-1-1-1S4,4.4472656,4,5s0.4472656,1,1,1c0.1044922,0,0.2001953-0.0297852,0.2949219-0.0595703L4.90625,5z"/>
				<path id="BrowL" style="fill: #663;" d="M6.034668,1.8408203C6.2905273,2.0185547,6.4311523,2.184082,6.3476562,2.2084961
					c-0.0839844,0.0244141-0.3793945-0.0722656-0.65625-0.215332L4.1938477,1.2216797
					C3.9169922,1.0786133,3.4892578,1.1186523,3.2436523,1.3100586L2.7036133,1.7299805
					C2.4580078,1.9213867,2.0073242,2.0258789,1.7021484,1.9624023L1.5546875,1.9316406
					C1.2495117,1.8681641,1.2055664,1.6650391,1.456543,1.4804688l1.5151367-1.1132812
					c0.2509766-0.1845703,0.6660156-0.1899414,0.921875-0.012207L6.034668,1.8408203z"/>
			</g>
		</g>
	</g>
</svg>
