<?xml version="1.0" encoding="utf-8"?>
<!--<?xml-stylesheet type="text/css" href="svg.css"?>-->
<!DOCTYPE svg PUBLIC "-//W3C//DTD SVG 1.1//EN" "http://www.w3.org/Graphics/SVG/1.1/DTD/svg11.dtd">
<svg version="1.1" xmlns="http://www.w3.org/2000/svg" xmlns:xlink="http://www.w3.org/1999/xlink" x="0px" y="0px" width="16px" height="16px" viewBox="0 0 16 16" xml:space="preserve">
	
	<title>Grinning</title>
	<desc>Grinning Smiley</desc>
	
	<!--
		@author		Harald Szekely 
		@copyright	2011 WoltLab GmbH 
		@license	GNU Lesser General Public License <http://opensource.org/licenses/lgpl-license.php> 
	--> 
	
	<defs>
		
	</defs>
	
	<g id="SmileyBody">
		<g id="YellowBody">
			<path class="Lower" style="fill-rule: evenodd; clip-rule: evenodd; fill: #fff;" d="M0,8.5712891
				C0,4.46875,3.3574219,1.1425781,7.5,1.1425781S15,4.46875,15,8.5712891C15,12.6748047,11.6425781,16,7.5,16
				S0,12.6748047,0,8.5712891z"/>
			<g class="UpperYellow">
				<path id="Frame" style="fill-rule: evenodd; clip-rule: evenodd; fill: #c93;" d="M0,7.5C0,3.3579102,3.3574219,0,7.5004883,0
					C11.6425781,0,15,3.3579102,15,7.5c0,4.1425781-3.3574219,7.5-7.4995117,7.5C3.3574219,15,0,11.6425781,0,7.5z"/>
				<radialGradient id="InnerFill" cx="8.0786133" cy="5.8706055" r="6.9639564" gradientTransform="matrix(1.0052 0 0 1.0052 -0.6572266 -0.1896458)" gradientUnits="userSpaceOnUse">
					<stop offset="0" style="stop-color: #fff"/>
					<stop offset=".472393" style="stop-color: #fff57a"/>
					<stop offset=".6076587" style="stop-color: #fff477"/>
					<stop offset=".7136346" style="stop-color: #fff06d"/>
					<stop offset=".8096381" style="stop-color: #feeb5c"/>
					<stop offset=".8997712" style="stop-color: #fde345"/>
					<stop offset=".9850296" style="stop-color: #fcd827"/>
					<stop offset="1" style="stop-color: #fcd621"/>
				</radialGradient>
				<path id="Inner" style="fill-rule: evenodd; clip-rule: evenodd; fill: url(#InnerFill);" d="M0.5,7.5004883
					C0.5,3.6337891,3.6333008,0.5,7.5009766,0.5C11.3681641,0.5,14.5,3.6337891,14.5,7.5004883
					C14.5,11.3662109,11.3681641,14.5,7.5009766,14.5C3.6333008,14.5,0.5,11.3662109,0.5,7.5004883z"/>
			</g>
		</g>
	</g>
	
	<g id="SmileyFace">
		<g id="GrinningSmiley">
			<g id="Mouth">
				<path style="fill-rule: evenodd; clip-rule: evenodd; fill: #663;" d="M7.4985352,10.5
					C5,10.5,3.7070312,9.2070312,3.7070312,9.2070312C3.3183594,8.8183594,3.1235352,8.9326172,3.2749023,9.4619141
					C3.2749023,9.4619141,4,12,7.4990234,12C11,12,11.7255859,9.4619141,11.7255859,9.4619141
					c0.1503906-0.5292969-0.0449219-0.6455078-0.4365234-0.2587891C11.2890625,9.203125,9.9794922,10.5,7.4985352,10.5z"/>
			</g>
			<g id="LeftEye">
				<path style="fill: #663;" d="M2.4272461,5.7402344C2.1923828,5.8828125,2.2250977,6,2.5,6l0,0
					c0.2749023,0,0.690918-0.1191406,0.9243164-0.2641602l1.3481445-0.8393555
					C5.0058594,4.7514648,5.309082,4.8271484,5.4467773,5.0654297l0.2900391,0.5014648C5.8745117,5.8051758,6.2119141,6,6.4868164,6
					H6.5c0.2749023,0,0.3818359-0.1914062,0.237793-0.4257812L5.8979492,4.2128906
					c-0.144043-0.234375-0.4545898-0.3085938-0.6894531-0.1660156L2.4272461,5.7402344z"/>
			</g>
			<g id="LeftEye">
				<path style="fill: #663;" d="M12.5742188,5.7402344C12.8085938,5.8828125,12.7763672,6,12.5009766,6H12.5
					c-0.2753906,0-0.6914062-0.1191406-0.9248047-0.2641602l-1.3466797-0.8393555
					C9.9951172,4.7514648,9.6914062,4.8271484,9.5537109,5.0654297L9.2636719,5.5668945C9.1259766,5.8051758,8.7885742,6,8.5136719,6
					H8.5C8.2250977,6,8.1181641,5.8085938,8.2626953,5.574707l0.8398438-1.3623047
					C9.2470703,3.9785156,9.5576172,3.9042969,9.7919922,4.046875L12.5742188,5.7402344z"/>
			</g>
		</g>
	</g>
</svg>
