<?xml version="1.0" encoding="utf-8"?>
<!--<?xml-stylesheet type="text/css" href="svg.css"?>-->
<!DOCTYPE svg PUBLIC "-//W3C//DTD SVG 1.1//EN" "http://www.w3.org/Graphics/SVG/1.1/DTD/svg11.dtd">
<svg version="1.1" xmlns="http://www.w3.org/2000/svg" xmlns:xlink="http://www.w3.org/1999/xlink" x="0px" y="0px" width="16px" height="16px" viewBox="0 0 16 16" xml:space="preserve">
	
	<title>Skull</title> 
	<desc>Skull Smiley</desc> 
	
	<!--
		@author		Harald Szekely 
		@copyright	2011 WoltLab GmbH 
		@license	GNU Lesser General Public License <http://opensource.org/licenses/lgpl-license.php> 
	--> 
	
	<defs>
		
	</defs>
	
	<g id="SmileyBody">
		<g id="SkullSmiley">
			<path id="Lower" style="fill: #fff;" d="M7.5,1C2.5209961,1,0,3.1586914,0,8c0,1.2636719,0.949707,1.890625,1.7128906,2.3945312
				C2.5112305,10.9208984,3,12.2792969,3,13v0.5h0.5v2C3.5,15.7753906,3.7250977,16,4,16h1
				c0.0927734,0,0.175293-0.0322266,0.25-0.0771484C5.324707,15.9677734,5.4072266,16,5.5,16h1.75
				c0.0927734,0,0.175293-0.0322266,0.25-0.0771484C7.574707,15.9677734,7.6572266,16,7.75,16H9.5
				c0.0927734,0,0.1757812-0.0322266,0.25-0.0771484C9.8242188,15.9677734,9.9072266,16,10,16h1c0.2753906,0,0.5-0.2246094,0.5-0.5v-2
				H12V13c0-0.7089844,0.4873047-2.0673828,1.2822266-2.5947266C14.0478516,9.8974609,15,9.265625,15,8
				C15,3.1586914,12.5205078,1,7.5,1z"/>
			<g class="Upper">
				<g id="Teeth">
					<g>
						<g>
							<path style="fill-rule: evenodd; clip-rule: evenodd; fill: #fff;" d="M10,14.7480469
								c-0.1367188,0-0.2480469-0.1113281-0.2480469-0.2480469v-2c0-0.1367188,0.1113281-0.2480469,0.2480469-0.2480469h1
								c0.1367188,0,0.2480469,0.1113281,0.2480469,0.2480469v2c0,0.1367188-0.1113281,0.2480469-0.2480469,0.2480469H10z"/>
							<path style="fill:#808080;" d="M10.9960938,12.5039062L11,14.4960938L10.0039062,14.5L10,12.5039062H10.9960938 M11,12h-1
								c-0.2753906,0-0.5,0.2246094-0.5,0.5v2c0,0.2753906,0.2246094,0.5,0.5,0.5h1c0.2753906,0,0.5-0.2246094,0.5-0.5v-2
								C11.5,12.2246094,11.2753906,12,11,12L11,12z"/>
						</g>
						<g>
							<path style="fill-rule: evenodd; clip-rule: evenodd; fill: #fff;" d="M4,14.7480469
								c-0.1367188,0-0.2480469-0.1113281-0.2480469-0.2480469v-2c0-0.1367188,0.1113281-0.2480469,0.2480469-0.2480469h1
								c0.1367188,0,0.2480469,0.1113281,0.2480469,0.2480469v2c0,0.1367188-0.1113281,0.2480469-0.2480469,0.2480469H4z"/>
							<path style="fill:#808080;" d="M4.9960938,12.5039062L5,14.4960938L4.0039062,14.5L4,12.5039062H4.9960938 M5,12H4
								c-0.2749023,0-0.5,0.2246094-0.5,0.5v2C3.5,14.7753906,3.7250977,15,4,15h1c0.2749023,0,0.5-0.2246094,0.5-0.5v-2
								C5.5,12.2246094,5.2749023,12,5,12L5,12z"/>
						</g>
						<g>
							<path style="fill-rule: evenodd; clip-rule: evenodd; fill: #fff;" d="M5.5,14.7382812
								c-0.1313477,0-0.237793-0.1074219-0.237793-0.2382812v-2c0-0.1308594,0.1064453-0.2382812,0.237793-0.2382812h1.75
								c0.1313477,0,0.237793,0.1074219,0.237793,0.2382812v2c0,0.1308594-0.1064453,0.2382812-0.237793,0.2382812H5.5z"/>
							<path style="fill:#808080;" d="M7.2260742,12.5244141L7.25,14.4755859L5.5244141,14.5L5.5,12.5244141H7.2260742 M7.25,12H5.5
								C5.2250977,12,5,12.2246094,5,12.5v2C5,14.7753906,5.2250977,15,5.5,15h1.75c0.2749023,0,0.5-0.2246094,0.5-0.5v-2
								C7.75,12.2246094,7.5249023,12,7.25,12L7.25,12z"/>
						</g>
						<g>
							<path style="fill-rule: evenodd; clip-rule: evenodd; fill: #fff;" d="M7.75,14.7382812
								c-0.1313477,0-0.237793-0.1074219-0.237793-0.2382812v-2c0-0.1308594,0.1064453-0.2382812,0.237793-0.2382812H9.5
								c0.1308594,0,0.2382812,0.1074219,0.2382812,0.2382812v2c0,0.1308594-0.1074219,0.2382812-0.2382812,0.2382812H7.75z"/>
							<path style="fill:#808080;" d="M9.4755859,12.5244141L9.5,14.4755859L7.7744141,14.5L7.75,12.5244141H9.4755859 M9.5,12H7.75
								c-0.2749023,0-0.5,0.2246094-0.5,0.5v2c0,0.2753906,0.2250977,0.5,0.5,0.5H9.5c0.2753906,0,0.5-0.2246094,0.5-0.5v-2
								C10,12.2246094,9.7753906,12,9.5,12L9.5,12z"/>
						</g>
					</g>
				</g>
				<g>
					<radialGradient id="InnerFill" cx="7.4619141" cy="4.7177734" r="6.5168424" gradientUnits="userSpaceOnUse">
						<stop offset="0.607362" style="stop-color: #fff"/>
						<stop offset="0.7631274" style="stop-color :#fbfbfb"/>
						<stop offset="0.9276483" style="stop-color :#eee"/>
						<stop offset="1" style="stop-color: #e6e6e6"/>
					</radialGradient>
					<path style="fill-rule: evenodd; clip-rule: evenodd; fill: url(#InnerFill);" d="M3.25,12.25V12
						c0-0.921875-0.6982422-1.6152344-1.4375-2.3496094C1.0444336,8.8876953,0.25,8.0991211,0.25,7
						c0-4.4790039,2.4394531-6.75,7.2509766-6.75C12.3115234,0.25,14.75,2.5209961,14.75,7
						c0,1.1010742-0.796875,1.8955078-1.5673828,2.6640625C12.4453125,10.3974609,11.75,11.0908203,11.75,12v0.25H3.25z"/>
					<path style="fill: #808080;" d="M7.5009766,0.5C12.5205078,0.5,14.5,3,14.5,7c0,2-3,2.9794922-3,5h-8c0-2.0410156-3-3-3-5
						C0.5,3,2.5,0.5,7.5009766,0.5 M7.5009766,0C2.59375,0,0,2.4204102,0,7c0,1.203125,0.8691406,2.0664062,1.6362305,2.828125
						C2.3374023,10.5244141,3,11.1826172,3,12v0.5h0.5h8H12V12c0-0.8056641,0.6601562-1.4628906,1.3583984-2.1591797
						C14.1279297,9.0742188,15,8.2050781,15,7C15,2.3549805,12.4765625,0,7.5009766,0L7.5009766,0z"/>
				</g>
				<g>
					<path style="fill-rule: evenodd; clip-rule: evenodd; fill: #fff;" d="M4.75,7.5c-0.7011719,0-1.25-0.4394531-1.25-1
						s0.5488281-1,1.25-1S6,5.9394531,6,6.5S5.4511719,7.5,4.75,7.5L4.75,7.5z"/>
					<path style="fill:#666666;" d="M4.75,6C5.1645508,6,5.5,6.2236328,5.5,6.5S5.1645508,7,4.75,7S4,6.7763672,4,6.5
						S4.3354492,6,4.75,6 M4.75,5C3.7685547,5,3,5.6586914,3,6.5S3.7685547,8,4.75,8S6.5,7.3413086,6.5,6.5S5.7314453,5,4.75,5L4.75,5
						z"/>
				</g>
				<g>
					<path style="fill-rule: evenodd; clip-rule: evenodd; fill: #fff;" d="M10.25,7.5C9.5488281,7.5,9,7.0605469,9,6.5
						s0.5488281-1,1.25-1s1.25,0.4394531,1.25,1S10.9511719,7.5,10.25,7.5L10.25,7.5z"/>
					<path style="fill:#666666;" d="M10.25,6C10.6640625,6,11,6.2236328,11,6.5S10.6640625,7,10.25,7S9.5,6.7763672,9.5,6.5
						S9.8359375,6,10.25,6 M10.25,5C9.2685547,5,8.5,5.6586914,8.5,6.5S9.2685547,8,10.25,8S12,7.3413086,12,6.5S11.2314453,5,10.25,5
						L10.25,5z"/>
				</g>
				<g>
					<path style="fill-rule: evenodd; clip-rule: evenodd; fill: #666;" d="M7.1865234,8.0097656
						c0.1650391-0.2802734,0.4375-0.2817383,0.6054688-0.0029297l0.652832,1.0859375
						c0.1679688,0.2783203,0.3496094,0.7695312,0.4038086,1.0898438l0.0395508,0.2333984
						c0.0541992,0.3203125-0.1606445,0.5214844-0.4770508,0.4472656l-0.3354492-0.0800781
						c-0.3164062-0.0742188-0.8349609-0.0751953-1.1518555-0.0019531l-0.3608398,0.0839844
						c-0.3168945,0.0732422-0.5268555-0.1279297-0.4667969-0.4472656l0.0444336-0.2373047
						c0.0600586-0.3193359,0.2446289-0.8105469,0.409668-1.0908203L7.1865234,8.0097656z"/>
				</g>
			</g>
		</g>
	</g>
</svg>
