<?xml version="1.0" encoding="utf-8"?>
<!--<?xml-stylesheet type="text/css" href="svg.css"?>-->
<!DOCTYPE svg PUBLIC "-//W3C//DTD SVG 1.1//EN" "http://www.w3.org/Graphics/SVG/1.1/DTD/svg11.dtd">
<svg version="1.1" xmlns="http://www.w3.org/2000/svg" xmlns:xlink="http://www.w3.org/1999/xlink" x="0px" y="0px" width="16px" height="16px" viewBox="0 0 16 16" xml:space="preserve">
	
	<title>Heart</title> 
	<desc>Heart Smiley</desc> 
	
	<!--
		@author		Harald Szekely 
		@copyright	2011 WoltLab GmbH 
		@license	GNU Lesser General Public License <http://opensource.org/licenses/lgpl-license.php> 
	--> 
	
	<defs>
		
	</defs>
	
	<g id="SmileyBody">
		<g id="HeartSmiley">
			<g class="Lower">
				<path id="Filled1" style="fill: #fff;" d="M15,5.3569336C15,10.1787109,7.5,15,7.5,15S0,10.15625,0,5.3569336
					c0-2.7001953,1.6069336-4.2856445,3.75-4.2856445c2.6787109,0,3.75,2.1655273,3.75,2.1655273
					s1.0712891-2.1655273,3.7509766-2.1655273C13.3935547,1.0712891,15,2.6342773,15,5.3569336z"/>
			</g>
			<g class="Upper">
				<radialGradient id="Filled2" cx="7.5" cy="5.0268555" r="7.2371349" gradientUnits="userSpaceOnUse">
					<stop offset="0" style="stop-color: #fcc"/>
					<stop offset=".1811581" style="stop-color: #ffc7c7"/>
					<stop offset=".3866912" style="stop-color: #ffbaba"/>
					<stop offset=".6042106" style="stop-color: #ffa3a3"/>
					<stop offset=".8284923" style="stop-color: #ff8383"/>
					<stop offset="1" style="stop-color: #f66"/>
				</radialGradient>
				<path id="Filled" style="fill: url(#Filled2);" d="M15,4.2856445c0,4.8217773-7.5,9.6430664-7.5,9.6430664
					S0,9.0849609,0,4.2856445C0,1.5849609,1.6069336,0,3.75,0C6.4287109,0,7.5,2.1655273,7.5,2.1655273S8.5712891,0,11.2509766,0
					C13.3935547,0,15,1.5625,15,4.2856445z"/>
				<path id="Outline" style="fill: #c33;" d="M11.2509766,0.5C13.2246094,0.5,14.5,1.9858398,14.5,4.2856445
					c0,3.9902344-5.6801758,8.1323242-6.9995117,9.0405273C6.1811523,12.4150391,0.5,8.2612305,0.5,4.2856445
					C0.5,1.9858398,1.7758789,0.5,3.75,0.5c2.3203125,0,3.2636719,1.8120117,3.3017578,1.887207L7.5,3.2929688L7.9482422,2.387207
					C7.9575195,2.3681641,8.9086914,0.5,11.2509766,0.5 M11.2509766,0C8.5712891,0,7.5,2.1655273,7.5,2.1655273S6.4287109,0,3.75,0
					C1.6069336,0,0,1.5849609,0,4.2856445c0,4.7993164,7.5,9.6430664,7.5,9.6430664S15,9.1074219,15,4.2856445
					C15,1.5625,13.3935547,0,11.2509766,0L11.2509766,0z"/>
			</g>
		</g>
	</g>
</svg>
