<?xml version="1.0" encoding="utf-8"?>
<!--<?xml-stylesheet type="text/css" href="svg.css"?>-->
<!DOCTYPE svg PUBLIC "-//W3C//DTD SVG 1.1//EN" "http://www.w3.org/Graphics/SVG/1.1/DTD/svg11.dtd">
<svg version="1.1" xmlns="http://www.w3.org/2000/svg" xmlns:xlink="http://www.w3.org/1999/xlink" x="0px" y="0px" width="16px" height="16px" viewBox="0 0 16 16" xml:space="preserve">
	
	<title>Question</title>
	<desc>Question Smiley</desc>
	
	<!--
		@author		Harald Szekely 
		@copyright	2011 WoltLab GmbH 
		@license	GNU Lesser General Public License <http://opensource.org/licenses/lgpl-license.php> 
	--> 
	
	<defs>
		
	</defs>
	
	<g id="SmileyBody">
		<g id="YellowBody">
			<path class="Lower" style="fill-rule: evenodd; clip-rule: evenodd; fill: #fff;" d="M0,8.5712891
				C0,4.46875,3.3574219,1.1425781,7.5,1.1425781S15,4.46875,15,8.5712891C15,12.6748047,11.6425781,16,7.5,16
				S0,12.6748047,0,8.5712891z"/>
			<g class="UpperYellow">
				<path id="Frame" style="fill-rule: evenodd; clip-rule: evenodd; fill: #c93;" d="M0,7.5C0,3.3579102,3.3574219,0,7.5004883,0
					C11.6425781,0,15,3.3579102,15,7.5c0,4.1425781-3.3574219,7.5-7.4995117,7.5C3.3574219,15,0,11.6425781,0,7.5z"/>
				<radialGradient id="InnerFill" cx="8.0786133" cy="5.8706055" r="6.9639564" gradientTransform="matrix(1.0052 0 0 1.0052 -0.6572266 -0.1896458)" gradientUnits="userSpaceOnUse">
					<stop offset="0" style="stop-color: #fff"/>
					<stop offset=".472393" style="stop-color: #fff57a"/>
					<stop offset=".6076587" style="stop-color: #fff477"/>
					<stop offset=".7136346" style="stop-color: #fff06d"/>
					<stop offset=".8096381" style="stop-color: #feeb5c"/>
					<stop offset=".8997712" style="stop-color: #fde345"/>
					<stop offset=".9850296" style="stop-color: #fcd827"/>
					<stop offset="1" style="stop-color: #fcd621"/>
				</radialGradient>
				<path id="Inner" style="fill-rule: evenodd; clip-rule: evenodd; fill: url(#InnerFill);" d="M0.5,7.5004883
					C0.5,3.6337891,3.6333008,0.5,7.5009766,0.5C11.3681641,0.5,14.5,3.6337891,14.5,7.5004883
					C14.5,11.3662109,11.3681641,14.5,7.5009766,14.5C3.6333008,14.5,0.5,11.3662109,0.5,7.5004883z"/>
			</g>
		</g>
	</g>
	
	<g id="SmileyFace">
		<g id="QuestionSmiley">
			<path id="QuestionMark" style="fill: #663;" d="M4.0629883,4.1831055
				c0.1787109-0.4423828,0.4282227-0.8251953,0.7475586-1.1503906c0.3212891-0.324707,0.7070312-0.5776367,1.1591797-0.7592773
				c0.453125-0.1826172,0.9584961-0.2739258,1.5166016-0.2739258c0.7231445,0,1.3256836,0.0957031,1.8056641,0.2871094
				c0.484375,0.1923828,0.875,0.4306641,1.1660156,0.7163086c0.2958984,0.2856445,0.5087891,0.5917969,0.6328125,0.921875
				c0.1298828,0.3300781,0.1904297,0.637207,0.1904297,0.9228516c0,0.472168-0.0605469,0.8603516-0.1904297,1.1655273
				c-0.1240234,0.3046875-0.2822266,0.565918-0.4726562,0.7817383c-0.1855469,0.2172852-0.3964844,0.4018555-0.6230469,0.5541992
				c-0.2285156,0.1518555-0.4453125,0.3046875-0.6494141,0.456543C9.1445312,7.9589844,8.9638672,8.1328125,8.8071289,8.3300781
				c-0.159668,0.1972656-0.2592773,0.4423828-0.2973633,0.7382812v0.5585938H6.4501953V8.9648438
				c0.0307617-0.4228516,0.1142578-0.7763672,0.2524414-1.0625C6.8393555,7.6166992,7,7.3735352,7.1831055,7.1723633
				c0.1831055-0.2021484,0.375-0.3774414,0.5791016-0.5249023c0.2026367-0.1469727,0.3901367-0.2949219,0.5634766-0.4423828
				c0.1733398-0.1479492,0.3129883-0.3095703,0.4194336-0.4868164S8.9008789,5.3198242,8.890625,5.0537109
				c0-0.4521484-0.1142578-0.7861328-0.3447266-1.0029297C8.3178711,3.8349609,8.0004883,3.7260742,7.59375,3.7260742
				c-0.2749023,0-0.5112305,0.0517578-0.7080078,0.1552734C6.6865234,3.9833984,6.5244141,4.121582,6.3969727,4.2944336
				c-0.1279297,0.171875-0.2211914,0.3735352-0.28125,0.6040039C6.0537109,5.1308594,6.0229492,5.3789062,6.0229492,5.644043
				H3.7817383C3.7924805,5.112793,3.8857422,4.6259766,4.0629883,4.1831055z M7.5327148,10.3027344
				c-0.753418,0-1.3647461,0.6035156-1.3647461,1.3476562S6.7792969,13,7.5327148,13
				c0.7514648,0,1.362793-0.6054688,1.362793-1.3496094S8.2841797,10.3027344,7.5327148,10.3027344z"/>
		</g>
	</g>
</svg>
