<?xml version="1.0" encoding="utf-8"?>
<!--<?xml-stylesheet type="text/css" href="svg.css"?>-->
<!DOCTYPE svg PUBLIC "-//W3C//DTD SVG 1.1//EN" "http://www.w3.org/Graphics/SVG/1.1/DTD/svg11.dtd">
<svg version="1.1" xmlns="http://www.w3.org/2000/svg" xmlns:xlink="http://www.w3.org/1999/xlink" x="0px" y="0px" width="16px" height="16px" viewBox="0 0 16 16" xml:space="preserve">
	
	<title>Laughing</title>
	<desc>Laughing Smiley</desc>
	
	<!--
		@author		Harald Szekely 
		@copyright	2011 WoltLab GmbH 
		@license	GNU Lesser General Public License <http://opensource.org/licenses/lgpl-license.php> 
	--> 
	
	<defs>
		
	</defs>
	
	<g id="SmileyBody">
		<g id="YellowBody">
			<path class="Lower" style="fill-rule: evenodd; clip-rule: evenodd; fill: #fff;" d="M0,8.5712891
				C0,4.46875,3.3574219,1.1425781,7.5,1.1425781S15,4.46875,15,8.5712891C15,12.6748047,11.6425781,16,7.5,16
				S0,12.6748047,0,8.5712891z"/>
			<g class="UpperYellow">
				<path id="Frame" style="fill-rule: evenodd; clip-rule: evenodd; fill: #c93;" d="M0,7.5C0,3.3579102,3.3574219,0,7.5004883,0
					C11.6425781,0,15,3.3579102,15,7.5c0,4.1425781-3.3574219,7.5-7.4995117,7.5C3.3574219,15,0,11.6425781,0,7.5z"/>
				<radialGradient id="InnerFill" cx="8.0786133" cy="5.8706055" r="6.9639564" gradientTransform="matrix(1.0052 0 0 1.0052 -0.6572266 -0.1896458)" gradientUnits="userSpaceOnUse">
					<stop offset="0" style="stop-color: #fff"/>
					<stop offset=".472393" style="stop-color: #fff57a"/>
					<stop offset=".6076587" style="stop-color: #fff477"/>
					<stop offset=".7136346" style="stop-color: #fff06d"/>
					<stop offset=".8096381" style="stop-color: #feeb5c"/>
					<stop offset=".8997712" style="stop-color: #fde345"/>
					<stop offset=".9850296" style="stop-color: #fcd827"/>
					<stop offset="1" style="stop-color: #fcd621"/>
				</radialGradient>
				<path id="Inner" style="fill-rule: evenodd; clip-rule: evenodd; fill: url(#InnerFill);" d="M0.5,7.5004883
					C0.5,3.6337891,3.6333008,0.5,7.5009766,0.5C11.3681641,0.5,14.5,3.6337891,14.5,7.5004883
					C14.5,11.3662109,11.3681641,14.5,7.5009766,14.5C3.6333008,14.5,0.5,11.3662109,0.5,7.5004883z"/>
			</g>
		</g>
	</g>
	
	<g id="SmileyFace">
		<g id="LaughingSmiley">
			<g id="Mouth">
				<path id="Lips" style="fill-rule: evenodd; clip-rule: evenodd; fill: #663;" d="M7.5,9.734375
					C4.7231445,9.7363281,3.0009766,9.0117188,3.0009766,9.0117188C2.4511719,8.9956055,2.168457,9.4150391,2.3740234,9.9277344
					c0,0,0.3085938,0.7802734,1.1044922,1.5849609S5.5551758,13,7.4990234,13c1.9453125,0,3.2275391-0.6826172,4.0224609-1.4873047
					s1.1044922-1.5849609,1.1044922-1.5849609C12.8320312,9.4150391,12.5498047,8.9956055,12,9.0117188
					C12,9.0117188,10.2568359,9.7324219,7.5,9.734375z"/>
				<path id="Teeth" style="fill-rule: evenodd; clip-rule: evenodd; fill: #fff;" d="M7.5,10.296875
					c-2.4663086,0-4-0.6972656-4-0.6972656c-0.2749023-0.0185547-0.4287109,0.1240234-0.3417969,0.4013672
					c0,0,0.2104492,0.6835938,0.8583984,1.3466797S5.7495117,12.5,7.4990234,12.5
					c1.7509766,0,2.8378906-0.4882812,3.4863281-1.1513672s0.8564453-1.3476562,0.8564453-1.3476562
					C11.9287109,9.7236328,11.7753906,9.5810547,11.5,9.5996094C11.5,9.5996094,9.9472656,10.296875,7.5,10.296875z"/>
			</g>
			<g id="RightEye">
				<path style="fill-rule: evenodd; clip-rule: evenodd; fill: #663;" d="M11,6c0,0.5498047-0.4501953,1-1,1l0,0
					C9.4501953,7,9,6.5498047,9,6V5c0-0.5498047,0.4501953-1,1-1l0,0c0.5498047,0,1,0.4501953,1,1V6z"/>
			</g>
			<g id="LeftEye">
				<path style="fill-rule: evenodd; clip-rule: evenodd; fill: #663;" d="M6,6c0,0.5498047-0.4501953,1-1,1l0,0
					C4.4501953,7,4,6.5498047,4,6V5c0-0.5498047,0.4501953-1,1-1l0,0c0.5498047,0,1,0.4501953,1,1V6z"/>
			</g>
		</g>
	</g>
</svg>
