<?xml version="1.0" encoding="utf-8"?>
<!--<?xml-stylesheet type="text/css" href="svg.css"?>-->
<!DOCTYPE svg PUBLIC "-//W3C//DTD SVG 1.1//EN" "http://www.w3.org/Graphics/SVG/1.1/DTD/svg11.dtd">
<svg version="1.1" xmlns="http://www.w3.org/2000/svg" xmlns:xlink="http://www.w3.org/1999/xlink" x="0px" y="0px" width="16px" height="16px" viewBox="0 0 16 16" xml:space="preserve">
	
	<title>Nerd</title>
	<desc>Nerd Smiley</desc>
	
	<!--
		@author		Harald Szekely 
		@copyright	2011 WoltLab GmbH 
		@license	GNU Lesser General Public License <http://opensource.org/licenses/lgpl-license.php> 
	--> 
	
	<defs>
		
	</defs>
	
	<g id="SmileyBody">
		<g id="YellowBody">
			<path class="Lower" style="fill-rule: evenodd; clip-rule: evenodd; fill: #fff;" d="M0,8.5712891
				C0,4.46875,3.3574219,1.1425781,7.5,1.1425781S15,4.46875,15,8.5712891C15,12.6748047,11.6425781,16,7.5,16
				S0,12.6748047,0,8.5712891z"/>
			<g class="UpperYellow">
				<path id="Frame" style="fill-rule: evenodd; clip-rule: evenodd; fill: #c93;" d="M0,7.5C0,3.3579102,3.3574219,0,7.5004883,0
					C11.6425781,0,15,3.3579102,15,7.5c0,4.1425781-3.3574219,7.5-7.4995117,7.5C3.3574219,15,0,11.6425781,0,7.5z"/>
				<radialGradient id="InnerFill" cx="8.0786133" cy="5.8706055" r="6.9639564" gradientTransform="matrix(1.0052 0 0 1.0052 -0.6572266 -0.1896458)" gradientUnits="userSpaceOnUse">
					<stop offset="0" style="stop-color: #fff"/>
					<stop offset=".472393" style="stop-color: #fff57a"/>
					<stop offset=".6076587" style="stop-color: #fff477"/>
					<stop offset=".7136346" style="stop-color: #fff06d"/>
					<stop offset=".8096381" style="stop-color: #feeb5c"/>
					<stop offset=".8997712" style="stop-color: #fde345"/>
					<stop offset=".9850296" style="stop-color: #fcd827"/>
					<stop offset="1" style="stop-color: #fcd621"/>
				</radialGradient>
				<path id="Inner" style="fill-rule: evenodd; clip-rule: evenodd; fill: url(#InnerFill);" d="M0.5,7.5004883
					C0.5,3.6337891,3.6333008,0.5,7.5009766,0.5C11.3681641,0.5,14.5,3.6337891,14.5,7.5004883
					C14.5,11.3662109,11.3681641,14.5,7.5009766,14.5C3.6333008,14.5,0.5,11.3662109,0.5,7.5004883z"/>
			</g>
		</g>
	</g>
	
	<g id="SmileyFace">
		<g id="NerdSmiley">
			<g id="Mouth">
				<path style="fill-rule: evenodd; clip-rule: evenodd; fill: #663;" d="M11,10.5c0,0.2753906-0.4501953,0.5-1,0.5H5
					c-0.5498047,0-1-0.2246094-1-0.5S4.4501953,10,5,10h5C10.5498047,10,11,10.2246094,11,10.5z"/>
			</g>
			<g id="RightEye">
				<g id="Outer1">
					<path style="fill-rule: evenodd; clip-rule: evenodd; fill: #663;" d="M12,5.5C12,6.3251953,11.3251953,7,10.5,7
						S9,6.3251953,9,5.5S9.6748047,4,10.5,4S12,4.6748047,12,5.5z"/>
				</g>
				<g id="Inner1">
					<path style="fill-rule: evenodd; clip-rule: evenodd; fill: #fff;" d="M11.5,5.5c0,0.5498047-0.4492188,1-1,1
						c-0.5488281,0-1-0.4501953-1-1s0.4511719-1,1-1C11.0507812,4.5,11.5,4.9501953,11.5,5.5z"/>
				</g>
			</g>
			<g id="LeftEye">
				<g id="Outer2">
					<path style="fill-rule: evenodd; clip-rule: evenodd; fill: #663;" d="M6,5.5C6,6.3251953,5.3251953,7,4.5,7S3,6.3251953,3,5.5
						S3.6748047,4,4.5,4S6,4.6748047,6,5.5z"/>
				</g>
				<g id="Inner2">
					<circle style="fill-rule: evenodd; clip-rule: evenodd; fill: #fff;" cx="4.5" cy="5.5" r="1"/>
				</g>
			</g>
			<path id="Glasses" style="fill: #000;" d="M15,4h-2.2001953C12.3085938,3.2490234,11.4628906,2.75,10.5,2.75S8.6923828,3.2490234,8.2006836,4
				H6.7998047C6.3081055,3.2490234,5.4628906,2.75,4.5,2.75S2.6918945,3.2490234,2.2001953,4H0v1h1.8007812
				C1.7705078,5.1625977,1.75,5.3286133,1.75,5.5c0,1.5166016,1.2333984,2.75,2.75,2.75S7.25,7.0166016,7.25,5.5
				c0-0.1713867-0.0205078-0.3374023-0.0507812-0.5h0.6015625c-0.0297852,0.1625977-0.050293,0.3286133-0.050293,0.5
				c0,1.5166016,1.2333984,2.75,2.7495117,2.75c1.5166016,0,2.75-1.2333984,2.75-2.75c0-0.1713867-0.0205078-0.3374023-0.0507812-0.5
				H15V4z M6.75,5.5c0,1.2407227-1.0092773,2.25-2.25,2.25S2.25,6.7407227,2.25,5.5c0-0.1723633,0.0234375-0.3388672,0.0605469-0.5
				c0.0869141-0.3798828,0.2719727-0.7197266,0.5244141-1C3.2470703,3.5429688,3.8374023,3.25,4.5,3.25
				S5.7529297,3.5429688,6.1650391,4c0.2524414,0.2802734,0.4375,0.6201172,0.5244141,1C6.7265625,5.1611328,6.75,5.3276367,6.75,5.5
				z M12.75,5.5c0,1.2407227-1.0097656,2.25-2.25,2.25S8.2504883,6.7407227,8.2504883,5.5
				c0-0.1723633,0.0234375-0.3388672,0.0605469-0.5c0.0869141-0.3798828,0.2719727-0.7197266,0.5249023-1
				C9.2480469,3.5429688,9.8378906,3.25,10.5,3.25S11.7519531,3.5429688,12.1650391,4
				c0.2519531,0.2802734,0.4375,0.6201172,0.5244141,1C12.7265625,5.1611328,12.75,5.3276367,12.75,5.5z"/>
		</g>
	</g>
</svg>
