<?xml version="1.0" encoding="utf-8"?>
<!--<?xml-stylesheet type="text/css" href="svg.css"?>-->
<!DOCTYPE svg PUBLIC "-//W3C//DTD SVG 1.1//EN" "http://www.w3.org/Graphics/SVG/1.1/DTD/svg11.dtd">
<svg version="1.1" xmlns="http://www.w3.org/2000/svg" xmlns:xlink="http://www.w3.org/1999/xlink" x="0px" y="0px" width="16px" height="16px" viewBox="0 0 16 16" xml:space="preserve">
	
	<title>Egg</title> 
	<desc>Egg Smiley</desc> 
	
	<!--
		@author		Harald Szekely 
		@copyright	2011 WoltLab GmbH 
		@license	GNU Lesser General Public License <http://opensource.org/licenses/lgpl-license.php> 
	--> 
	
	<defs>
		
	</defs>
	
	<g id="SmileyBody">
		<g id="SmileyEgg">
			<path class="Lower" style="fill-rule: evenodd; clip-rule: evenodd; fill: #fff;" d="M15,5.4902344
				C15,3.0097656,12.1210938,1,8.5712891,1S2.1430664,3.0097656,2.1430664,5.4902344
				c0,0.3574219,0.0664062,0.7036133,0.1791992,1.0371094C0.894043,7.5283203,0,8.9365234,0,10.5009766
				C0,13.5380859,3.3574219,16,7.5,16s7.5-2.4619141,7.5-5.4990234c0-0.9716797-0.3466797-1.8823242-0.9482422-2.6738281
				C14.6494141,7.1455078,15,6.3476562,15,5.4902344z"/>
			<g id="Glair">
				<path style="fill-rule: evenodd; clip-rule: evenodd; fill: #fff;" d="M7.5,14.75c-3.9975586,0-7.25-2.3544922-7.25-5.2490234
					c0-1.4291992,0.7871094-2.7675781,2.2158203-3.769043C2.5566406,5.668457,2.5947266,5.5522461,2.559082,5.4472656
					C2.4487305,5.121582,2.3930664,4.7993164,2.3930664,4.4902344C2.3930664,2.1523438,5.1645508,0.25,8.5712891,0.25
					C11.9785156,0.25,14.75,2.1523438,14.75,4.4902344c0,0.7597656-0.3066406,1.5107422-0.8857422,2.171875
					c-0.0791016,0.0893555-0.0830078,0.2216797-0.0117188,0.3164062C14.4394531,7.7509766,14.75,8.6230469,14.75,9.5009766
					C14.75,12.3955078,11.4980469,14.75,7.5,14.75L7.5,14.75z"/>
				<path style="fill: #b3b3b3;" d="M8.5712891,0.5C11.8408203,0.5,14.5,2.2900391,14.5,4.4902344
					c0,0.6982422-0.2851562,1.3920898-0.8242188,2.0073242c-0.15625,0.1787109-0.1660156,0.4428711-0.0224609,0.6323242
					C14.2070312,7.8583984,14.5,8.6782227,14.5,9.5009766C14.5,12.2578125,11.359375,14.5,7.5,14.5
					c-3.8598633,0-7-2.2421875-7-4.9990234c0-1.3452148,0.7490234-2.6108398,2.109375-3.5639648
					c0.1816406-0.1274414,0.2578125-0.359375,0.1865234-0.5698242c-0.1015625-0.2998047-0.152832-0.5947266-0.152832-0.8769531
					C2.6430664,2.2900391,5.3022461,0.5,8.5712891,0.5 M8.5712891,0C5.0214844,0,2.1430664,2.0097656,2.1430664,4.4902344
					c0,0.3574219,0.0664062,0.7036133,0.1791992,1.0371094C0.894043,6.5283203,0,7.9365234,0,9.5009766
					C0,12.5380859,3.3574219,15,7.5,15S15,12.5380859,15,9.5009766c0-0.9711914-0.3466797-1.8823242-0.9482422-2.6738281
					C14.6494141,6.1455078,15,5.3476562,15,4.4902344C15,2.0097656,12.1210938,0,8.5712891,0L8.5712891,0z"/>
			</g>
			<g id="Yolk">
				<radialGradient id="InnerFill" cx="7.9804688" cy="6.6699219" r="3.4538903" gradientUnits="userSpaceOnUse">
					<stop offset="0" style="stop-color: #fff"/>
					<stop offset="0.472393" style="stop-color: #fff57a"/>
					<stop offset="0.6076587" style="stop-color: #fff477"/>
					<stop offset="0.7136346" style="stop-color: #fff06d"/>
					<stop offset="0.8096381" style="stop-color: #feeb5c"/>
					<stop offset="0.8997712" style="stop-color: #fde345"/>
					<stop offset="0.9850296" style="stop-color: #fcd827"/>
					<stop offset="1" style="stop-color: #fcd621"/>
				</radialGradient>
				<path style="fill-rule: evenodd; clip-rule: evenodd; fill: url(#InnerFill);" d="M7.6914062,10.75
					C5.7294922,10.75,4.25,9.2792969,4.25,7.3286133C4.25,5.4868164,6.3037109,4.25,8.2216797,4.25
					C10.3320312,4.25,11.75,5.8310547,11.75,7.3076172C11.75,9.3339844,10.0810547,10.75,7.6914062,10.75L7.6914062,10.75z"/>
				<path style="fill: #c93;" d="M8.2216797,4.5C10.1826172,4.5,11.5,5.9516602,11.5,7.3076172
					C11.5,9.1875,9.9335938,10.5,7.6914062,10.5C5.8720703,10.5,4.5,9.1367188,4.5,7.3286133
					C4.5,5.6616211,6.4614258,4.5,8.2216797,4.5 M8.2216797,4C6.2758789,4,4,5.2880859,4,7.3286133
					C4,9.3681641,5.5263672,11,7.6914062,11C10.3320312,11,12,9.3466797,12,7.3076172C12,5.6157227,10.3789062,4,8.2216797,4
					L8.2216797,4z"/>
			</g>
		</g>
	</g>
</svg>
