<?xml version="1.0" encoding="utf-8"?>
<!--<?xml-stylesheet type="text/css" href="svg.css"?>-->
<!DOCTYPE svg PUBLIC "-//W3C//DTD SVG 1.1//EN" "http://www.w3.org/Graphics/SVG/1.1/DTD/svg11.dtd">
<svg version="1.1" xmlns="http://www.w3.org/2000/svg" xmlns:xlink="http://www.w3.org/1999/xlink" x="0px" y="0px" width="16px" height="16px" viewBox="0 0 16 16" xml:space="preserve">
	
	<title>Sick</title> 
	<desc>Sick Smiley</desc> 
	
	<!--
		@author		Harald Szekely 
		@copyright	2011 WoltLab GmbH 
		@license	GNU Lesser General Public License <http://opensource.org/licenses/lgpl-license.php> 
	--> 
	
	<defs>
		
	</defs>
	
	<g id="SmileyBody">
		<g id="GreenBody">
			<path class="Lower" style="fill-rule: evenodd; clip-rule: evenodd; fill: #fff;" d="M0,8.5712891
				C0,4.46875,3.3574219,1.1425781,7.5,1.1425781S15,4.46875,15,8.5712891C15,12.6748047,11.6425781,16,7.5,16
				S0,12.6748047,0,8.5712891z"/>
			<g class="UpperGreen">
				<radialGradient id="InnerFill" cx="7.4619141" cy="5.6484375" r="7.2499151" gradientUnits="userSpaceOnUse">
					<stop offset="0" style="stop-color: #fff"/>
					<stop offset=".5" style="stop-color: #d1edce"/>
					<stop offset="1" style="stop-color: #b6ccae"/>
				</radialGradient>
				<path style="fill-rule: evenodd; clip-rule: evenodd; fill: url(#InnerFill);" d="M7.5009766,14.75
					C3.5029297,14.75,0.25,11.4980469,0.25,7.5004883C0.25,3.5024414,3.5029297,0.25,7.5009766,0.25
					C11.4980469,0.25,14.75,3.5024414,14.75,7.5004883C14.75,11.4980469,11.4980469,14.75,7.5009766,14.75L7.5009766,14.75z"/>
				<path style="fill: #7a9170;" d="M7.5009766,0.5C11.3681641,0.5,14.5,3.6337891,14.5,7.5004883
					C14.5,11.3662109,11.3681641,14.5,7.5009766,14.5C3.6328125,14.5,0.5,11.3662109,0.5,7.5004883
					C0.5,3.6337891,3.6328125,0.5,7.5009766,0.5 M7.5009766,0C3.3647461,0,0,3.3647461,0,7.5004883
					C0,11.6357422,3.3647461,15,7.5009766,15C11.6357422,15,15,11.6357422,15,7.5004883C15,3.3647461,11.6357422,0,7.5009766,0
					L7.5009766,0z"/>
			</g>
		</g>
	</g>
	
	<g id="SmileyFace">
		<g id="SickSmiley">
			<g id="Mouth">
				<g id="Part1">
					<path style="fill-rule: evenodd; clip-rule: evenodd; fill: #663;" d="M9.8925781,8.7324219
						c0.2636719,0.1943359,0.1162109,0.6210938-0.3261719,0.9472656l-3.1762695,2.3476562
						c-0.4423828,0.3261719-1.0195312,0.4345703-1.2827148,0.2402344s-0.1166992-0.6210938,0.3256836-0.9472656l3.1767578-2.347168
						C9.0517578,8.6464844,9.6289062,8.5380859,9.8925781,8.7324219z"/>
				</g>
				<g id="Part2">
					<path style="fill-rule: evenodd; clip-rule: evenodd; fill: #663;" d="M9.8925781,12.2675781
						c-0.2636719,0.1943359-0.8408203,0.0859375-1.2827148-0.2402344L5.4331055,9.6796875
						C4.9907227,9.3535156,4.8442383,8.9267578,5.1074219,8.7324219s0.840332-0.0859375,1.2827148,0.2407227l3.1762695,2.347168
						C10.0087891,11.6464844,10.15625,12.0732422,9.8925781,12.2675781z"/>
				</g>
			</g>
			<path id="LeftEye" style="fill-rule: evenodd; clip-rule: evenodd; fill: #663;" d="M6.2358398,5.2094727
				C6.3447266,5.4624023,6.0209961,5.847168,5.5161133,6.0649414L4.1381836,6.659668
				C3.6333008,6.8774414,3.1308594,6.8491211,3.0219727,6.5966797s0.2148438-0.637207,0.7197266-0.8554688l1.3779297-0.5942383
				C5.6245117,4.9287109,6.1269531,4.9570312,6.2358398,5.2094727z"/>
			<path id="LeftEye" style="fill-rule: evenodd; clip-rule: evenodd; fill: #663;" d="M11.9785156,6.5966797
				c0.1083984-0.2529297-0.2148438-0.6376953-0.7207031-0.8554688L9.8808594,5.1464844
				C9.375,4.9287109,8.8730469,4.9570312,8.7646484,5.2094727c-0.109375,0.2524414,0.2148438,0.637207,0.7197266,0.8554688
				l1.3769531,0.5942383C11.3671875,6.8774414,11.8691406,6.8491211,11.9785156,6.5966797z"/>
		</g>
	</g>
</svg>
