<?xml version="1.0" encoding="utf-8"?>
<!--<?xml-stylesheet type="text/css" href="svg.css"?>-->
<!DOCTYPE svg PUBLIC "-//W3C//DTD SVG 1.1//EN" "http://www.w3.org/Graphics/SVG/1.1/DTD/svg11.dtd">
<svg version="1.1" xmlns="http://www.w3.org/2000/svg" xmlns:xlink="http://www.w3.org/1999/xlink" x="0px" y="0px" width="16px" height="16px" viewBox="0 0 16 16" xml:space="preserve">
	
	<title>Sad</title> 
	<desc>Sad Smiley</desc> 
	
	<!--
		@author		Harald Szekely 
		@copyright	2011 WoltLab GmbH 
		@license	GNU Lesser General Public License <http://opensource.org/licenses/lgpl-license.php> 
	--> 
	
	<defs>
		
	</defs>
	
	<g id="SmileyBody">
		<g id="YellowBody">
			<path class="Lower" style="fill-rule: evenodd; clip-rule: evenodd; fill: #fff;" d="M0,8.5712891
				C0,4.46875,3.3574219,1.1425781,7.5,1.1425781S15,4.46875,15,8.5712891C15,12.6748047,11.6425781,16,7.5,16
				S0,12.6748047,0,8.5712891z"/>
			<g class="UpperYellow">
				<path id="Frame" style="fill-rule: evenodd; clip-rule: evenodd; fill: #c93;" d="M0,7.5C0,3.3579102,3.3574219,0,7.5004883,0
					C11.6425781,0,15,3.3579102,15,7.5c0,4.1425781-3.3574219,7.5-7.4995117,7.5C3.3574219,15,0,11.6425781,0,7.5z"/>
				<radialGradient id="InnerFill" cx="8.0786133" cy="5.8706055" r="6.9639564" gradientTransform="matrix(1.0052 0 0 1.0052 -0.6572266 -0.1896458)" gradientUnits="userSpaceOnUse">
					<stop offset="0" style="stop-color: #fff"/>
					<stop offset=".472393" style="stop-color: #fff57a"/>
					<stop offset=".6076587" style="stop-color: #fff477"/>
					<stop offset=".7136346" style="stop-color: #fff06d"/>
					<stop offset=".8096381" style="stop-color: #feeb5c"/>
					<stop offset=".8997712" style="stop-color: #fde345"/>
					<stop offset=".9850296" style="stop-color: #fcd827"/>
					<stop offset="1" style="stop-color: #fcd621"/>
				</radialGradient>
				<path id="Inner" style="fill-rule: evenodd; clip-rule: evenodd; fill: url(#InnerFill);" d="M0.5,7.5004883
					C0.5,3.6337891,3.6333008,0.5,7.5009766,0.5C11.3681641,0.5,14.5,3.6337891,14.5,7.5004883
					C14.5,11.3662109,11.3681641,14.5,7.5009766,14.5C3.6333008,14.5,0.5,11.3662109,0.5,7.5004883z"/>
			</g>
		</g>
	</g>
	
	<g id="SmileyFace">
		<g id="SadSmiley">
			<path id="Mouth" style="fill-rule: evenodd; clip-rule: evenodd; fill: #663;" d="M7.4985352,10.25
				C6.15625,10.25,5.0771484,10.6103516,4,11.5C4.1503906,10.1025391,5.6503906,9,7.4990234,9
				C9.3486328,9,10.8505859,10.1025391,11,11.5C10.0478516,10.7148438,8.8422852,10.25,7.4985352,10.25z"/>
			<g id="RightEye">
				<path id="EyeR" style="fill-rule: evenodd; clip-rule: evenodd; fill: #663;" d="M11,6c0,0.5498047-0.4501953,1-1,1l0,0
					C9.4501953,7,9,6.5498047,9,6l0,0c0-0.5498047,0.4501953-1,1-1l0,0C10.5498047,5,11,5.4501953,11,6L11,6z"/>
				<path id="BrowR" style="fill-rule: evenodd; clip-rule: evenodd; fill: #663;" d="M11.9394531,5.8876953
					c0.1777344-0.215332-0.046875-0.6728516-0.4990234-1.0185547l-1.234375-0.9418945
					C9.7539062,3.581543,9.2382812,3.4750977,9.0605469,3.6894531c-0.1767578,0.2148438,0.0488281,0.6723633,0.5,1.0185547
					l1.234375,0.9418945C11.2460938,5.9956055,11.7617188,6.1020508,11.9394531,5.8876953z"/>
			</g>
			<g id="LeftEye">
				<path id="EyeL" style="fill-rule: evenodd; clip-rule: evenodd; fill: #663;" d="M6,6c0,0.5498047-0.4501953,1-1,1l0,0
					C4.4501953,7,4,6.5498047,4,6l0,0c0-0.5498047,0.4501953-1,1-1l0,0C5.5498047,5,6,5.4501953,6,6L6,6z"/>
				<path id="BrowL" style="fill-rule: evenodd; clip-rule: evenodd; fill: #663;" d="M3.0610352,5.8876953
					c-0.1777344-0.215332,0.0473633-0.6728516,0.4990234-1.0185547l1.234375-0.9418945
					C5.246582,3.581543,5.762207,3.4750977,5.9394531,3.6894531c0.1772461,0.2148438-0.0478516,0.6723633-0.4990234,1.0185547
					L4.2055664,5.6499023C3.7539062,5.9956055,3.2382812,6.1020508,3.0610352,5.8876953z"/>
			</g>
		</g>
	</g>
</svg>
