<?xml version="1.0" encoding="utf-8"?>
<!--<?xml-stylesheet type="text/css" href="svg.css"?>-->
<!DOCTYPE svg PUBLIC "-//W3C//DTD SVG 1.1//EN" "http://www.w3.org/Graphics/SVG/1.1/DTD/svg11.dtd">
<svg version="1.1" xmlns="http://www.w3.org/2000/svg" xmlns:xlink="http://www.w3.org/1999/xlink" x="0px" y="0px" width="16px" height="16px" viewBox="0 0 16 16" xml:space="preserve">
	
	<title>Dumb</title> 
	<desc>Dumb Smiley</desc> 
	
	<!--
		@author		Harald Szekely 
		@copyright	2011 WoltLab GmbH 
		@license	GNU Lesser General Public License <http://opensource.org/licenses/lgpl-license.php> 
	--> 
	
	<defs>
		
	</defs>
	
	<g id="SmileyBody">
		<g id="YellowBody">
			<path class="Lower" style="fill-rule: evenodd; clip-rule: evenodd; fill: #fff;" d="M0,8.5712891
				C0,4.46875,3.3574219,1.1425781,7.5,1.1425781S15,4.46875,15,8.5712891C15,12.6748047,11.6425781,16,7.5,16
				S0,12.6748047,0,8.5712891z"/>
			<g class="UpperYellow">
				<path id="Frame" style="fill-rule: evenodd; clip-rule: evenodd; fill: #c93;" d="M0,7.5C0,3.3579102,3.3574219,0,7.5004883,0
					C11.6425781,0,15,3.3579102,15,7.5c0,4.1425781-3.3574219,7.5-7.4995117,7.5C3.3574219,15,0,11.6425781,0,7.5z"/>
				<radialGradient id="InnerFill" cx="8.0786133" cy="5.8706055" r="6.9639564" gradientTransform="matrix(1.0052 0 0 1.0052 -0.6572266 -0.1896458)" gradientUnits="userSpaceOnUse">
					<stop offset="0" style="stop-color: #fff"/>
					<stop offset=".472393" style="stop-color: #fff57a"/>
					<stop offset=".6076587" style="stop-color: #fff477"/>
					<stop offset=".7136346" style="stop-color: #fff06d"/>
					<stop offset=".8096381" style="stop-color: #feeb5c"/>
					<stop offset=".8997712" style="stop-color: #fde345"/>
					<stop offset=".9850296" style="stop-color: #fcd827"/>
					<stop offset="1" style="stop-color: #fcd621"/>
				</radialGradient>
				<path id="Inner" style="fill-rule: evenodd; clip-rule: evenodd; fill: url(#InnerFill);" d="M0.5,7.5004883
					C0.5,3.6337891,3.6333008,0.5,7.5009766,0.5C11.3681641,0.5,14.5,3.6337891,14.5,7.5004883
					C14.5,11.3662109,11.3681641,14.5,7.5009766,14.5C3.6333008,14.5,0.5,11.3662109,0.5,7.5004883z"/>
			</g>
		</g>
	</g>
	
	<g id="SmileyFace">
		<g id="DumbSmiley">
			<g id="Mouth">
				<g id="Part2">
					<path style="fill-rule: evenodd; clip-rule: evenodd; fill: #666633;" d="M9.8925781,8.7324219
						c0.2636719,0.1943359,0.1162109,0.6210938-0.3261719,0.9472656l-3.1762695,2.3476562
						c-0.4423828,0.3261719-1.0195312,0.4345703-1.2827148,0.2402344s-0.1166992-0.6210938,0.3256836-0.9472656l3.1767578-2.347168
						C9.0517578,8.6464844,9.6289062,8.5380859,9.8925781,8.7324219z"/>
				</g>
				<g id="Part1">
					<path style="fill-rule: evenodd; clip-rule: evenodd; fill: #666633;" d="M9.8925781,12.2675781
						c-0.2636719,0.1943359-0.8408203,0.0859375-1.2827148-0.2402344L5.4331055,9.6796875
						C4.9907227,9.3535156,4.8442383,8.9267578,5.1074219,8.7324219s0.840332-0.0859375,1.2827148,0.2407227l3.1762695,2.347168
						C10.0087891,11.6464844,10.15625,12.0732422,9.8925781,12.2675781z"/>
				</g>
			</g>
			<g id="RightEye">
				<path style="fill-rule: evenodd; clip-rule: evenodd; fill: #666633;" d="M11,6c0,0.5498047-0.4501953,1-1,1l0,0
					C9.4501953,7,9,6.5498047,9,6V5c0-0.5498047,0.4501953-1,1-1l0,0c0.5498047,0,1,0.4501953,1,1V6z"/>
			</g>
			<g id="LeftEye">
				<path style="fill-rule: evenodd; clip-rule: evenodd; fill: #666633;" d="M6,6c0,0.5498047-0.4501953,1-1,1l0,0
					C4.4501953,7,4,6.5498047,4,6V5c0-0.5498047,0.4501953-1,1-1l0,0c0.5498047,0,1,0.4501953,1,1V6z"/>
			</g>
		</g>
	</g>
</svg>
