<?xml version="1.0" encoding="utf-8"?>
<!--<?xml-stylesheet type="text/css" href="svg.css"?>-->
<!DOCTYPE svg PUBLIC "-//W3C//DTD SVG 1.1//EN" "http://www.w3.org/Graphics/SVG/1.1/DTD/svg11.dtd">
<svg version="1.1" xmlns="http://www.w3.org/2000/svg" xmlns:xlink="http://www.w3.org/1999/xlink" x="0px" y="0px" width="16px" height="16px" viewBox="0 0 16 16" xml:space="preserve">
	
	<title>Tongue</title> 
	<desc>Tongue Smiley</desc> 
	
	<!--
		@author		Harald Szekely 
		@copyright	2011 WoltLab GmbH 
		@license	GNU Lesser General Public License <http://opensource.org/licenses/lgpl-license.php> 
	--> 
	
	<defs>
		
	</defs>
	
	<g id="SmileyBody">
		<g id="YellowBody">
			<path class="Lower" style="fill-rule: evenodd; clip-rule: evenodd; fill: #fff;" d="M0,8.5712891
				C0,4.46875,3.3574219,1.1425781,7.5,1.1425781S15,4.46875,15,8.5712891C15,12.6748047,11.6425781,16,7.5,16
				S0,12.6748047,0,8.5712891z"/>
			<g class="UpperYellow">
				<path id="Frame" style="fill-rule: evenodd; clip-rule: evenodd; fill: #c93;" d="M0,7.5C0,3.3579102,3.3574219,0,7.5004883,0
					C11.6425781,0,15,3.3579102,15,7.5c0,4.1425781-3.3574219,7.5-7.4995117,7.5C3.3574219,15,0,11.6425781,0,7.5z"/>
				<radialGradient id="InnerFill" cx="8.0786133" cy="5.8706055" r="6.9639564" gradientTransform="matrix(1.0052 0 0 1.0052 -0.6572266 -0.1896458)" gradientUnits="userSpaceOnUse">
					<stop offset="0" style="stop-color: #fff"/>
					<stop offset=".472393" style="stop-color: #fff57a"/>
					<stop offset=".6076587" style="stop-color: #fff477"/>
					<stop offset=".7136346" style="stop-color: #fff06d"/>
					<stop offset=".8096381" style="stop-color: #feeb5c"/>
					<stop offset=".8997712" style="stop-color: #fde345"/>
					<stop offset=".9850296" style="stop-color: #fcd827"/>
					<stop offset="1" style="stop-color: #fcd621"/>
				</radialGradient>
				<path id="Inner" style="fill-rule: evenodd; clip-rule: evenodd; fill: url(#InnerFill);" d="M0.5,7.5004883
					C0.5,3.6337891,3.6333008,0.5,7.5009766,0.5C11.3681641,0.5,14.5,3.6337891,14.5,7.5004883
					C14.5,11.3662109,11.3681641,14.5,7.5009766,14.5C3.6333008,14.5,0.5,11.3662109,0.5,7.5004883z"/>
			</g>
		</g>
	</g>
	
	<g id="SmileyFace">
		<g id="TongueSmiley">
			<g id="Mouth">
				<path style="fill-rule: evenodd; clip-rule: evenodd; fill: #663;" d="M7.4985352,10.5
					C5,10.5,3.7070312,9.2070312,3.7070312,9.2070312C3.3183594,8.8183594,3.1235352,8.9326172,3.2749023,9.4619141
					C3.2749023,9.4619141,4,12,7.4990234,12C11,12,11.7255859,9.4619141,11.7255859,9.4619141
					c0.1503906-0.5292969-0.0449219-0.6455078-0.4365234-0.2587891C11.2890625,9.203125,9.9794922,10.5,7.4985352,10.5z"/>
			</g>
			<g id="RightEye">
				<path style="fill-rule: evenodd; clip-rule: evenodd; fill: #663;" d="M11,6c0,0.5498047-0.4501953,1-1,1l0,0
					C9.4501953,7,9,6.5498047,9,6V5c0-0.5498047,0.4501953-1,1-1l0,0c0.5498047,0,1,0.4501953,1,1V6z"/>
			</g>
			<g id="LeftEye">
				<path style="fill-rule: evenodd; clip-rule: evenodd; fill: #663;" d="M6,6c0,0.5498047-0.4501953,1-1,1l0,0
					C4.4501953,7,4,6.5498047,4,6V5c0-0.5498047,0.4501953-1,1-1l0,0c0.5498047,0,1,0.4501953,1,1V6z"/>
			</g>
		</g>
		<g id="Tongue">
			<linearGradient id="Part2_5_" gradientUnits="userSpaceOnUse" x1="9.2226562" y1="11.2451172" x2="10.7993746" y2="13.4969044">
				<stop  offset="0" style="stop-color:#FF6600"/>
				<stop  offset="1" style="stop-color:#ED1C24"/>
			</linearGradient>
				<path id="Part2" style="fill-rule: evenodd; clip-rule: evenodd; fill: url(#Part2_5_); stroke: #930; stroke-width: .25; stroke-linecap: round; stroke-linejoin: round;" d="
				M7,11.9765625c2,0,1.7084961,2.6904297,4.0419922,1.4824219c2.3662109-1.2246094,0.1875-3.1044922,0.1875-3.1044922
				s-0.6445312,0.1523438-1.8857422,0.7119141C8.1889648,11.5869141,7,11.9765625,7,11.9765625z"/>
			<path id="Part1" style="fill-rule: evenodd; clip-rule: evenodd; fill: #930;" d="M9,11.2167969
				c0,0,0.3730469,0.140625,0.6660156,0.3662109c0.3652344,0.2792969,0.6669922,0.6875,0.6669922,0.6875
				S10.1914062,11.7695312,10,11.375c-0.1298828-0.2695312-0.2373047-0.4912109-0.2373047-0.4912109L9,11.2167969z"/>
		</g>
	</g>
</svg>
