<?xml version="1.0" encoding="utf-8"?>
<!-- Generator: Adobe Illustrator 14.0.0, SVG Export Plug-In . SVG Version: 6.00 Build 43363)  -->
<!DOCTYPE svg PUBLIC "-//W3C//DTD SVG 1.1//EN" "http://www.w3.org/Graphics/SVG/1.1/DTD/svg11.dtd">
<svg version="1.1" xmlns="http://www.w3.org/2000/svg" xmlns:xlink="http://www.w3.org/1999/xlink" x="0px" y="0px" width="16px"
	 height="16px" viewBox="0 0 16 16" style="enable-background:new 0 0 16 16;" xml:space="preserve">
<g id="Smiley_Star">
	<path id="Lower" style="fill:#FFFFFF;" d="M15,6.3920898H9.2714844L7.5,1.0712891L5.7294922,6.3920898H0l4.6357422,3.2885742
		L2.8647461,15L7.5,11.7109375L12.1367188,15l-1.7705078-5.3193359L15,6.3920898z"/>
	<radialGradient id="Upper_Yellow_Gradient_1_" cx="7.4780273" cy="7.4780273" r="7.0763392" gradientUnits="userSpaceOnUse">
		<stop  offset="0" style="stop-color:#FFFFFF"/>
		<stop  offset="0.472393" style="stop-color:#FFF57A"/>
		<stop  offset="0.6076587" style="stop-color:#FFF477"/>
		<stop  offset="0.7136346" style="stop-color:#FFF06D"/>
		<stop  offset="0.8096381" style="stop-color:#FEEB5C"/>
		<stop  offset="0.8997712" style="stop-color:#FDE345"/>
		<stop  offset="0.9850296" style="stop-color:#FCD827"/>
		<stop  offset="1" style="stop-color:#FCD621"/>
	</radialGradient>
	<polygon id="Upper_Yellow_Gradient" style="fill:url(#Upper_Yellow_Gradient_1_);" points="7.5,0 9.2714844,5.3203125 
		15,5.3203125 10.3662109,8.6088867 12.1367188,13.9287109 7.5,10.6396484 2.8647461,13.9287109 4.6357422,8.6088867 0,5.3203125 
		5.7294922,5.3203125 	"/>
	<path id="Upper_Outline" style="fill:#CC9933;" d="M15,5.3203125H9.2714844L7.5,0L5.7294922,5.3203125H0l4.6357422,3.2885742
		l-1.7709961,5.3198242L7.5,10.6396484l4.6367188,3.2890625l-1.7705078-5.3198242L15,5.3203125z M11.1386719,12.5224609
		L7.5,9.9775391l-3.6381836,2.5449219l1.3393555-4.0620117L1.3842773,5.7587891h4.7319336L7.5,1.6069336l1.3842773,4.1518555
		h4.7329102L9.7998047,8.4604492L11.1386719,12.5224609z"/>
</g>
<g id="Hilfslinien">
</g>
</svg>
